<?xml version="1.0" encoding="utf-8"?>
<!-- Generator: Adobe Illustrator 16.0.0, SVG Export Plug-In . SVG Version: 6.00 Build 0)  -->
<!DOCTYPE svg PUBLIC "-//W3C//DTD SVG 1.1//EN" "http://www.w3.org/Graphics/SVG/1.1/DTD/svg11.dtd">
<svg version="1.1" id="Layer_9" xmlns="http://www.w3.org/2000/svg" xmlns:xlink="http://www.w3.org/1999/xlink" x="0px" y="0px"
	 width="100px" height="100px" viewBox="0 0 100 100" enable-background="new 0 0 100 100" xml:space="preserve">
<path d="M98.186,19.513l0.068-0.178L50.022,0.493L1.868,19.53l-0.157-0.062v0.122l-0.007,0.004l0.007,0.02v60.438L50,98.98
	l48.296-18.929V19.469L98.186,19.513z M49.977,4.197l16.359,5.859L21.74,27.37L6.634,21.411L49.977,4.197z M48.279,94.71
	l-18.086-7.302l-9.077-3.41L5.162,77.704V24.539l15.794,6.23v13.294l1.408-0.393l0.951,1.307l1.324-0.309l1.283,1.355l1.119-0.386
	l1.807,1.792V33.882l1.406,0.555l18.025,7.109L48.279,94.71L48.279,94.71z M50.004,38.52L32.37,31.563L75.86,13.937l17.937,7.307
	L50.004,38.52z M94.847,77.704L51.727,94.71V41.546l43.116-17.008v53.165L94.847,77.704L94.847,77.704z"/>
</svg>
