<?xml version="1.0" encoding="iso-8859-1"?>
<!-- Generator: Adobe Illustrator 17.0.0, SVG Export Plug-In . SVG Version: 6.00 Build 0)  -->
<!DOCTYPE svg PUBLIC "-//W3C//DTD SVG 1.1//EN" "http://www.w3.org/Graphics/SVG/1.1/DTD/svg11.dtd">
<svg version="1.1" id="Capa_1" xmlns="http://www.w3.org/2000/svg" xmlns:xlink="http://www.w3.org/1999/xlink" x="0px" y="0px"
	 width="64px" height="64px" viewBox="0 0 64 64" style="enable-background:new 0 0 64 64;" xml:space="preserve">
<g>
	<circle cx="32" cy="32" r="2.333"/>
	<path d="M22.502,26.744c0.586,0.585,1.354,0.878,2.121,0.878s1.535-0.293,2.121-0.879c1.172-1.171,1.172-3.071,0-4.243L9.107,4.865
		c-1.172-1.171-3.07-1.171-4.242,0c-1.172,1.171-1.172,3.071,0,4.243L22.502,26.744z"/>
	<path d="M39.377,27.623c0.768,0,1.535-0.293,2.121-0.878L59.135,9.108c1.172-1.172,1.172-3.071,0-4.243
		c-1.172-1.172-3.07-1.171-4.242,0L37.256,22.501c-1.172,1.172-1.172,3.071,0,4.243C37.842,27.33,38.609,27.623,39.377,27.623z"/>
	<path d="M54.893,59.135c0.586,0.585,1.354,0.878,2.121,0.878s1.535-0.293,2.121-0.879c1.172-1.171,1.172-3.071,0-4.243
		L41.498,37.256c-1.172-1.171-3.07-1.171-4.242,0c-1.172,1.171-1.172,3.071,0,4.243L54.893,59.135z"/>
	<path d="M6.986,60.014c0.768,0,1.535-0.293,2.121-0.878l17.637-17.636c1.172-1.172,1.172-3.071,0-4.243
		c-1.172-1.172-3.07-1.171-4.242,0L4.865,54.892c-1.172,1.172-1.172,3.071,0,4.243C5.451,59.721,6.219,60.014,6.986,60.014z"/>
</g>
</svg>
