<?xml version="1.0" encoding="UTF-8" standalone="no"?>
<!-- Generator: Adobe Illustrator 16.0.0, SVG Export Plug-In . SVG Version: 6.00 Build 0)  -->

<svg
   xmlns:dc="http://purl.org/dc/elements/1.1/"
   xmlns:cc="http://creativecommons.org/ns#"
   xmlns:rdf="http://www.w3.org/1999/02/22-rdf-syntax-ns#"
   xmlns:svg="http://www.w3.org/2000/svg"
   xmlns="http://www.w3.org/2000/svg"
   xmlns:sodipodi="http://sodipodi.sourceforge.net/DTD/sodipodi-0.dtd"
   xmlns:inkscape="http://www.inkscape.org/namespaces/inkscape"
   version="1.1"
   id="Layer_1"
   x="0px"
   y="0px"
   width="100px"
   height="100px"
   viewBox="0 0 100 100"
   enable-background="new 0 0 100 100"
   xml:space="preserve"
   inkscape:version="0.48.4 r9939"
   sodipodi:docname="close.svg"><metadata
     id="metadata9"><rdf:RDF><cc:Work
         rdf:about=""><dc:format>image/svg+xml</dc:format><dc:type
           rdf:resource="http://purl.org/dc/dcmitype/StillImage" /></cc:Work></rdf:RDF></metadata><defs
     id="defs7" /><sodipodi:namedview
     pagecolor="#ffffff"
     bordercolor="#666666"
     borderopacity="1"
     objecttolerance="10"
     gridtolerance="10"
     guidetolerance="10"
     inkscape:pageopacity="0"
     inkscape:pageshadow="2"
     inkscape:window-width="1360"
     inkscape:window-height="712"
     id="namedview5"
     showgrid="false"
     inkscape:zoom="3.337544"
     inkscape:cx="-2.320878"
     inkscape:cy="35.098304"
     inkscape:window-x="-4"
     inkscape:window-y="-6"
     inkscape:window-maximized="1"
     inkscape:current-layer="Layer_1" /><path
     d="m 76.83,32.5605 -17.438,17.439 17.438,17.439 c 2.594,2.594 2.594,6.798 0,9.392 -1.296,1.296 -2.995,1.945 -4.694,1.945 -1.7,0 -3.399,-0.648 -4.695,-1.945 L 50,59.3905 32.56,76.8305 c -1.296,1.296 -2.995,1.945 -4.695,1.945 -1.699,0 -3.397,-0.648 -4.694,-1.945 -2.594,-2.593 -2.594,-6.797 0,-9.392 L 40.608,49.9995 23.17,32.5605 c -2.594,-2.594 -2.594,-6.798 0,-9.392 2.593,-2.592 6.795,-2.592 9.389,0 L 50,40.6085 67.44,23.1685 c 2.594,-2.592 6.796,-2.592 9.389,0 2.595,2.594 2.595,6.798 0.001,9.392 z"
     id="path3"
     inkscape:connector-curvature="0"
     style="fill:#020202" /></svg>