<?xml version="1.0" encoding="utf-8"?>
<!-- Generator: Adobe Illustrator 16.0.0, SVG Export Plug-In . SVG Version: 6.00 Build 0)  -->
<!DOCTYPE svg PUBLIC "-//W3C//DTD SVG 1.1//EN" "http://www.w3.org/Graphics/SVG/1.1/DTD/svg11.dtd">
<svg version="1.1" id="Ebene_1" xmlns="http://www.w3.org/2000/svg" xmlns:xlink="http://www.w3.org/1999/xlink" x="0px" y="0px"
	 width="167.427px" height="191.979px" viewBox="0 0 167.427 191.979" enable-background="new 0 0 167.427 191.979"
	 xml:space="preserve">
<g>
	<g>
		<polygon fill="#E2E2E2" points="22.852,134.418 42.975,146.038 33.478,113.86 		"/>
		<path fill="#E2E2E2" d="M0.256,56.143L0,146.184l78.359,45.239l0.255-90.04L0.256,56.143z M19.846,134.954l15.171-29.534
			l13.612,46.151L19.846,134.954z"/>
	</g>
	<path fill="#E2E2E2" d="M89.186,101.03l-0.258,90.949l78.241-45.469l0.258-90.948L89.186,101.03z M137.132,103.148
		c-0.361,0.656-0.806,1.135-1.339,1.441c-0.48,0.278-0.997,0.294-1.559,0.053c-0.314-0.132-0.586-0.13-0.82,0.005
		c-0.23,0.133-0.427,0.359-0.581,0.678c-0.157,0.318-0.235,0.75-0.234,1.301c0.002,0.654,0.069,1.756,0.195,3.301
		c0.524,6.134,0.792,11.2,0.804,15.197c0.002,1.055-0.095,5.723-0.29,14.016c-0.097,4.689-0.7,8.167-1.816,10.447
		c-0.733,1.475-1.646,2.527-2.737,3.158c-0.707,0.408-1.289,0.479-1.739,0.204c-0.451-0.274-0.681-0.825-0.683-1.653
		c-0.002-0.708,0.17-1.372,0.517-1.998c0.346-0.621,0.787-1.089,1.32-1.397c0.543-0.313,1.016-0.334,1.414-0.06
		c0.396,0.273,0.731,0.33,1.003,0.172c0.23-0.133,0.423-0.352,0.573-0.66c0.146-0.307,0.221-0.715,0.221-1.236
		c-0.003-0.654-0.066-1.561-0.189-2.716c-0.521-4.642-0.792-11.01-0.815-19.099c0.221-8.781,0.367-13.561,0.432-14.333
		c0.306-3.097,0.848-5.385,1.631-6.866c0.782-1.478,1.668-2.506,2.666-3.082c0.684-0.395,1.28-0.475,1.792-0.243
		c0.512,0.229,0.77,0.655,0.771,1.284C137.669,101.798,137.49,102.494,137.132,103.148z"/>
	<g>
		<path fill="#E2E2E2" d="M89.453,44.819c-1.29-0.745-3.011-1.225-5.163-1.431c-2.146-0.21-4.792,0.07-7.926,0.833
			c-3.132,0.763-5.787,1.773-7.956,3.034c-1.662,0.966-2.528,1.928-2.618,2.897c-0.084,0.965,0.481,1.806,1.701,2.51
			c1.768,1.021,4.5,1.519,8.205,1.504c4.708-0.021,9.756-1.018,15.122-2.975c1.03-1.242,1.399-2.426,1.094-3.543
			C91.613,46.536,90.794,45.592,89.453,44.819z"/>
		<path fill="#E2E2E2" d="M82.545,0L4.304,45.469l79.146,45.695l78.241-45.469L82.545,0z M98.849,48.604
			c-5.037,2.928-10.678,4.918-16.901,5.976c-6.987,1.19-12.394,0.686-16.218-1.522c-2.24-1.294-3.375-2.69-3.402-4.198
			s1.059-2.901,3.272-4.188c1.472-0.855,3.25-1.571,5.347-2.139s4.145-0.906,6.154-1.017c2.004-0.107,3.818-0.06,5.436,0.14
			s3.096,0.501,4.428,0.903c1.32,0.401,2.475,0.885,3.451,1.448c1.194,0.689,2.045,1.438,2.559,2.241
			c0.5,0.804,0.74,1.581,0.713,2.33c-0.01,0.457-0.205,1.028-0.588,1.717c1.783-0.836,3.192-1.559,4.22-2.156
			c2.568-1.492,3.884-3.041,3.938-4.647c0.061-1.604-1.043-3.063-3.297-4.364c-1.525-0.881-3.08-1.442-4.66-1.692
			c-1.574-0.247-3.324-0.273-5.238-0.078l-0.989-0.571c3.355-0.67,6.192-0.936,8.497-0.788c2.299,0.144,4.352,0.74,6.164,1.787
			c1.29,0.745,2.205,1.678,2.732,2.791c0.529,1.12,0.39,2.348-0.411,3.687C103.261,45.604,101.519,47.052,98.849,48.604z"/>
	</g>
</g>
</svg>
