<?xml version="1.0" encoding="UTF-8" standalone="no"?>
<!-- Created with Inkscape (http://www.inkscape.org/) -->

<svg
   xmlns:dc="http://purl.org/dc/elements/1.1/"
   xmlns:cc="http://creativecommons.org/ns#"
   xmlns:rdf="http://www.w3.org/1999/02/22-rdf-syntax-ns#"
   xmlns:svg="http://www.w3.org/2000/svg"
   xmlns="http://www.w3.org/2000/svg"
   xmlns:sodipodi="http://sodipodi.sourceforge.net/DTD/sodipodi-0.dtd"
   xmlns:inkscape="http://www.inkscape.org/namespaces/inkscape"
   sodipodi:docname="cfMesh.svg"
   inkscape:version="0.48.5 r10040"
   version="1.1"
   id="svg2"
   height="600"
   width="600">
  <sodipodi:namedview
     id="base"
     pagecolor="#ffffff"
     bordercolor="#666666"
     borderopacity="1.0"
     inkscape:pageopacity="0.0"
     inkscape:pageshadow="2"
     inkscape:zoom="0.9899495"
     inkscape:cx="382.31987"
     inkscape:cy="176.0913"
     inkscape:document-units="px"
     inkscape:current-layer="layer2"
     showgrid="false"
     inkscape:window-width="1680"
     inkscape:window-height="1020"
     inkscape:window-x="1360"
     inkscape:window-y="0"
     inkscape:window-maximized="1"
     inkscape:snap-page="true" />
  <defs
     id="defs4">
    <inkscape:path-effect
       effect="skeletal"
       id="path-effect18201"
       is_visible="true"
       pattern="M 0,5 C 0,2.24 2.24,0 5,0 7.76,0 10,2.24 10,5 10,7.76 7.76,10 5,10 2.24,10 0,7.76 0,5 z"
       copytype="single_stretched"
       prop_scale="0.35"
       scale_y_rel="false"
       spacing="0"
       normal_offset="0"
       tang_offset="0"
       prop_units="false"
       vertical_pattern="false"
       fuse_tolerance="0" />
    <inkscape:path-effect
       effect="skeletal"
       id="path-effect18197"
       is_visible="true"
       pattern="M 0,5 C 0,2.24 2.24,0 5,0 7.76,0 10,2.24 10,5 10,7.76 7.76,10 5,10 2.24,10 0,7.76 0,5 z"
       copytype="single_stretched"
       prop_scale="0.35"
       scale_y_rel="false"
       spacing="0"
       normal_offset="0"
       tang_offset="0"
       prop_units="false"
       vertical_pattern="false"
       fuse_tolerance="0" />
    <inkscape:path-effect
       effect="skeletal"
       id="path-effect18193"
       is_visible="true"
       pattern="M 0,5 C 0,2.24 2.24,0 5,0 7.76,0 10,2.24 10,5 10,7.76 7.76,10 5,10 2.24,10 0,7.76 0,5 z"
       copytype="single_stretched"
       prop_scale="0.35"
       scale_y_rel="false"
       spacing="0"
       normal_offset="0"
       tang_offset="0"
       prop_units="false"
       vertical_pattern="false"
       fuse_tolerance="0" />
    <inkscape:path-effect
       effect="skeletal"
       id="path-effect18189"
       is_visible="true"
       pattern="M 0,5 C 0,2.24 2.24,0 5,0 7.76,0 10,2.24 10,5 10,7.76 7.76,10 5,10 2.24,10 0,7.76 0,5 z"
       copytype="single_stretched"
       prop_scale="0.35"
       scale_y_rel="false"
       spacing="0"
       normal_offset="0"
       tang_offset="0"
       prop_units="false"
       vertical_pattern="false"
       fuse_tolerance="0" />
    <inkscape:path-effect
       effect="skeletal"
       id="path-effect18185"
       is_visible="true"
       pattern="M 0,5 C 0,2.24 2.24,0 5,0 7.76,0 10,2.24 10,5 10,7.76 7.76,10 5,10 2.24,10 0,7.76 0,5 z"
       copytype="single_stretched"
       prop_scale="0.35"
       scale_y_rel="false"
       spacing="0"
       normal_offset="0"
       tang_offset="0"
       prop_units="false"
       vertical_pattern="false"
       fuse_tolerance="0" />
    <inkscape:path-effect
       effect="skeletal"
       id="path-effect18181"
       is_visible="true"
       pattern="M 0,5 C 0,2.24 2.24,0 5,0 7.76,0 10,2.24 10,5 10,7.76 7.76,10 5,10 2.24,10 0,7.76 0,5 z"
       copytype="single_stretched"
       prop_scale="0.35"
       scale_y_rel="false"
       spacing="0"
       normal_offset="0"
       tang_offset="0"
       prop_units="false"
       vertical_pattern="false"
       fuse_tolerance="0" />
    <inkscape:path-effect
       effect="skeletal"
       id="path-effect18177"
       is_visible="true"
       pattern="M 0,5 C 0,2.24 2.24,0 5,0 7.76,0 10,2.24 10,5 10,7.76 7.76,10 5,10 2.24,10 0,7.76 0,5 z"
       copytype="single_stretched"
       prop_scale="0.35"
       scale_y_rel="false"
       spacing="0"
       normal_offset="0"
       tang_offset="0"
       prop_units="false"
       vertical_pattern="false"
       fuse_tolerance="0" />
    <inkscape:path-effect
       effect="skeletal"
       id="path-effect18173"
       is_visible="true"
       pattern="M 0,5 C 0,2.24 2.24,0 5,0 7.76,0 10,2.24 10,5 10,7.76 7.76,10 5,10 2.24,10 0,7.76 0,5 z"
       copytype="single_stretched"
       prop_scale="0.35"
       scale_y_rel="false"
       spacing="0"
       normal_offset="0"
       tang_offset="0"
       prop_units="false"
       vertical_pattern="false"
       fuse_tolerance="0" />
    <inkscape:path-effect
       effect="skeletal"
       id="path-effect18127"
       is_visible="true"
       pattern="m 10.714286,137.14285 c 0,12.22916 -30.77737,17.32588 -43.214286,12.85715 -81.77518,-29.38277 -73.92857,-18.48513 -73.92857,-30.71429 0,-12.22916 122.150277,12.38265 73.92857,-13.57143 -52.553871,-28.285757 43.214286,19.19941 43.214286,31.42857 z"
       copytype="single_stretched"
       prop_scale="1"
       scale_y_rel="false"
       spacing="0"
       normal_offset="0"
       tang_offset="0"
       prop_units="false"
       vertical_pattern="false"
       fuse_tolerance="0" />
    <inkscape:path-effect
       effect="skeletal"
       id="path-effect18097"
       is_visible="true"
       pattern="m -60.675847,1.0906528 c 0,12.8315102 -10.40199,23.2335102 -23.23351,23.2335102 -12.83151,0 -23.233503,-10.402 -23.233503,-23.2335102 0,-12.8315098 10.401993,-23.2335098 23.233503,-23.2335098 12.83152,0 23.23351,10.402 23.23351,23.2335098 z"
       copytype="single_stretched"
       prop_scale="1"
       scale_y_rel="false"
       spacing="0"
       normal_offset="0"
       tang_offset="0"
       prop_units="false"
       vertical_pattern="false"
       fuse_tolerance="0" />
    <inkscape:path-effect
       effect="skeletal"
       id="path-effect18087"
       is_visible="true"
       pattern="M 0,0 1,0"
       copytype="single_stretched"
       prop_scale="1"
       scale_y_rel="false"
       spacing="0"
       normal_offset="0"
       tang_offset="0"
       prop_units="false"
       vertical_pattern="false"
       fuse_tolerance="0" />
    <inkscape:path-effect
       effect="skeletal"
       id="path-effect18040"
       is_visible="true"
       pattern="M 0,0 1,0"
       copytype="single_stretched"
       prop_scale="1"
       scale_y_rel="false"
       spacing="0"
       normal_offset="0"
       tang_offset="0"
       prop_units="false"
       vertical_pattern="false"
       fuse_tolerance="0" />
    <inkscape:path-effect
       effect="skeletal"
       id="path-effect18038"
       is_visible="true"
       pattern="M 0,0 1,0"
       copytype="repeated"
       prop_scale="1"
       scale_y_rel="false"
       spacing="0"
       normal_offset="0"
       tang_offset="0"
       prop_units="false"
       vertical_pattern="false"
       fuse_tolerance="0" />
    <inkscape:path-effect
       effect="skeletal"
       id="path-effect18025"
       is_visible="true"
       pattern="M 0,0 1,0"
       copytype="single_stretched"
       prop_scale="1"
       scale_y_rel="true"
       spacing="11"
       normal_offset="2"
       tang_offset="0"
       prop_units="false"
       vertical_pattern="false"
       fuse_tolerance="0" />
    <inkscape:path-effect
       effect="skeletal"
       id="path-effect18023"
       is_visible="true"
       pattern="M 0,0 1,0"
       copytype="single_stretched"
       prop_scale="1"
       scale_y_rel="false"
       spacing="0"
       normal_offset="0"
       tang_offset="0"
       prop_units="false"
       vertical_pattern="false"
       fuse_tolerance="0" />
    <inkscape:path-effect
       effect="skeletal"
       id="path-effect18021"
       is_visible="true"
       pattern="M 0,5 C 0,2.24 2.24,0 5,0 7.76,0 10,2.24 10,5 10,7.76 7.76,10 5,10 2.24,10 0,7.76 0,5 z"
       copytype="single_stretched"
       prop_scale="1"
       scale_y_rel="false"
       spacing="0"
       normal_offset="0"
       tang_offset="0"
       prop_units="false"
       vertical_pattern="false"
       fuse_tolerance="0" />
    <inkscape:path-effect
       effect="skeletal"
       id="path-effect18017"
       is_visible="true"
       pattern="M 0,0 0,10 10,5 z"
       copytype="single_stretched"
       prop_scale="1"
       scale_y_rel="false"
       spacing="0"
       normal_offset="0"
       tang_offset="0"
       prop_units="false"
       vertical_pattern="false"
       fuse_tolerance="0" />
    <inkscape:path-effect
       effect="bend_path"
       id="path-effect18004"
       is_visible="true"
       bendpath="m 255.56859,237.60777 71.21576,0"
       prop_scale="1"
       scale_y_rel="false"
       vertical="false" />
    <filter
       style="color-interpolation-filters:sRGB;"
       inkscape:label="Drop Shadow"
       id="filter19257">
      <feFlood
         flood-opacity="0.5"
         flood-color="rgb(0,0,0)"
         result="flood"
         id="feFlood19259" />
      <feComposite
         in="flood"
         in2="SourceGraphic"
         operator="in"
         result="composite1"
         id="feComposite19261" />
      <feGaussianBlur
         in="composite"
         stdDeviation="2"
         result="blur"
         id="feGaussianBlur19263" />
      <feOffset
         dx="4"
         dy="4"
         result="offset"
         id="feOffset19265" />
      <feComposite
         in="SourceGraphic"
         in2="offset"
         operator="over"
         result="composite2"
         id="feComposite19267" />
    </filter>
    <filter
       style="color-interpolation-filters:sRGB;"
       inkscape:label="Drop Shadow"
       id="filter19295">
      <feFlood
         flood-opacity="0.5"
         flood-color="rgb(0,0,0)"
         result="flood"
         id="feFlood19297" />
      <feComposite
         in="flood"
         in2="SourceGraphic"
         operator="in"
         result="composite1"
         id="feComposite19299" />
      <feGaussianBlur
         in="composite"
         stdDeviation="2"
         result="blur"
         id="feGaussianBlur19301" />
      <feOffset
         dx="4"
         dy="4"
         result="offset"
         id="feOffset19303" />
      <feComposite
         in="SourceGraphic"
         in2="offset"
         operator="over"
         result="composite2"
         id="feComposite19305" />
    </filter>
  </defs>
  <metadata
     id="metadata7">
    <rdf:RDF>
      <cc:Work
         rdf:about="">
        <dc:format>image/svg+xml</dc:format>
        <dc:type
           rdf:resource="http://purl.org/dc/dcmitype/StillImage" />
        <dc:title />
      </cc:Work>
    </rdf:RDF>
  </metadata>
  <g
     inkscape:label="Layer 1"
     inkscape:groupmode="layer"
     id="layer1"
     transform="translate(0,-452.36218)">
    <rect
       style="fill:#5275a6;fill-opacity:1;stroke:none"
       id="rect3004"
       width="600"
       height="600"
       x="0"
       y="452.36218" />
  </g>
  <g
     inkscape:groupmode="layer"
     id="layer2"
     inkscape:label="Layer">
    <g
       id="g19286"
       style="filter:url(#filter19295)">
      <g
         transform="matrix(1.9999998,0,0,1.9895772,-293.78827,-16.067995)"
         style="font-size:50.14635086px;font-style:normal;font-weight:normal;line-height:125%;letter-spacing:0px;word-spacing:0px;fill:#ffffff;fill-opacity:1;stroke:none;filter:url(#filter27503);font-family:Sans"
         id="g3792">
        <path
           style="fill:#ffffff"
           inkscape:connector-curvature="0"
           d="m 235.24415,255.9831 0,4.21151 c -1.27327,-0.7019 -2.55468,-1.22426 -3.84423,-1.56708 -1.27326,-0.35909 -2.56283,-0.53866 -3.86871,-0.53868 -2.92195,2e-5 -5.19094,0.93047 -6.80698,2.79135 -1.61605,1.8446 -2.42407,4.44006 -2.42406,7.7864 -1e-5,3.34636 0.80801,5.94999 2.42406,7.81088 1.61604,1.84458 3.88503,2.76687 6.80698,2.76686 1.30588,10e-6 2.59545,-0.17139 3.86871,-0.51419 1.28955,-0.35912 2.57096,-0.88964 3.84423,-1.59156 l 0,4.16254 c -1.25695,0.58765 -2.56284,1.02839 -3.91768,1.32221 -1.33857,0.29383 -2.76689,0.44074 -4.28497,0.44074 -4.1299,0 -7.41096,-1.29773 -9.84318,-3.89319 -2.43223,-2.59546 -3.64835,-6.09689 -3.64834,-10.50429 -1e-5,-4.47267 1.22427,-7.99042 3.67282,-10.55326 2.46487,-2.5628 5.83571,-3.8442 10.11253,-3.84423 1.38749,3e-5 2.74235,0.14694 4.06459,0.44074 1.3222,0.27753 2.60361,0.70194 3.84423,1.27325"
           id="path3794" />
        <path
           style="fill:#ffffff"
           inkscape:connector-curvature="0"
           d="m 257.01178,244.25453 0,3.74629 -4.30945,0 c -1.61606,3e-5 -2.74239,0.3265 -3.37901,0.97942 -0.62031,0.65298 -0.93046,1.82828 -0.93045,3.52591 l 0,2.42407 7.41912,0 0,3.50143 -7.41912,0 0,23.92235 -4.52982,0 0,-23.92235 -4.30945,0 0,-3.50143 4.30945,0 0,-1.90987 c 0,-3.0525 0.71008,-5.27252 2.13024,-6.66006 1.42015,-1.4038 3.67282,-2.10572 6.75801,-2.10576 l 4.26048,0"
           id="path3796" />
        <path
           style="fill:#ffffff"
           inkscape:connector-curvature="0"
           d="m 260.95395,245.79712 7.37014,0 9.32898,24.87729 9.37796,-24.87729 7.37014,0 0,36.55688 -4.82365,0 0,-32.10052 -9.42692,25.07318 -4.97056,0 -9.42693,-25.07318 0,32.10052 -4.79916,0 0,-36.55688"
           id="path3798" />
        <path
           style="fill:#ffffff"
           inkscape:connector-curvature="0"
           d="m 327.5056,267.51578 0,2.20369 -20.71475,0 c 0.19587,3.10151 1.12632,5.46844 2.79135,7.10081 1.68132,1.61604 4.01561,2.42407 7.00286,2.42406 1.73029,10e-6 3.40346,-0.2122 5.01953,-0.63662 1.63234,-0.42441 3.24838,-1.06104 4.84813,-1.90987 l 0,4.26048 c -1.61607,0.68559 -3.27292,1.20795 -4.97056,1.56707 -1.69768,0.35912 -3.41983,0.53868 -5.16645,0.53868 -4.37475,0 -7.84353,-1.27324 -10.40634,-3.81974 -2.5465,-2.54649 -3.81975,-5.99078 -3.81974,-10.33289 -10e-6,-4.48899 1.20794,-8.04755 3.62385,-10.67569 2.43222,-2.64441 5.70512,-3.96662 9.8187,-3.96665 3.68913,3e-5 6.6029,1.19165 8.74133,3.57489 2.1547,2.36695 3.23206,5.59088 3.23209,9.67178 m -4.50534,-1.32222 c -0.0327,-2.46486 -0.72642,-4.43186 -2.08127,-5.90101 -1.33856,-1.46911 -3.11784,-2.20368 -5.33784,-2.2037 -2.51386,2e-5 -4.52983,0.7101 -6.04793,2.13024 -1.50178,1.42018 -2.36694,3.41983 -2.59546,5.99895 l 16.0625,-0.0245"
           id="path3800" />
        <path
           style="fill:#ffffff"
           inkscape:connector-curvature="0"
           d="m 352.38289,255.73824 0,4.26048 c -1.27327,-0.65292 -2.59548,-1.14263 -3.96665,-1.46913 -1.37121,-0.32645 -2.79137,-0.48969 -4.26048,-0.48971 -2.23636,2e-5 -3.9177,0.34282 -5.04402,1.02839 -1.11002,0.68562 -1.66502,1.71401 -1.66502,3.08518 0,1.04473 0.39993,1.86908 1.19979,2.47304 0.79985,0.58767 2.40774,1.15083 4.82365,1.6895 l 1.54259,0.34279 c 3.19942,0.68561 5.46841,1.65687 6.80697,2.91378 1.35485,1.24061 2.03228,2.97908 2.0323,5.21542 -2e-5,2.5465 -1.01209,4.56247 -3.0362,6.04792 -2.00783,1.48546 -4.77469,2.22818 -8.30059,2.22818 -1.46915,0 -3.00357,-0.14691 -4.60328,-0.44074 -1.58341,-0.2775 -3.25658,-0.70191 -5.01953,-1.27324 l 0,-4.65225 c 1.66501,0.86516 3.30554,1.5181 4.92159,1.95884 1.61603,0.42442 3.21575,0.63663 4.79916,0.63662 2.12206,10e-6 3.75443,-0.35911 4.8971,-1.07736 1.14264,-0.73456 1.71397,-1.76295 1.71399,-3.08518 -2e-5,-1.22426 -0.41627,-2.16287 -1.24876,-2.81583 -0.8162,-0.65294 -2.61997,-1.2814 -5.4113,-1.88539 l -1.56708,-0.36728 c -2.79135,-0.58764 -4.80733,-1.48544 -6.04792,-2.69341 -1.2406,-1.22426 -1.8609,-2.89743 -1.8609,-5.01953 0,-2.57912 0.91412,-4.5706 2.74238,-5.97447 1.82824,-1.40381 4.42371,-2.10572 7.78639,-2.10575 1.665,3e-5 3.23208,0.12245 4.70122,0.36728 1.46912,0.24488 2.82398,0.61217 4.0646,1.10185"
           id="path3802" />
        <path
           style="fill:#ffffff"
           inkscape:connector-curvature="0"
           d="m 383.84679,265.80179 0,16.55221 -4.50534,0 0,-16.4053 c -2e-5,-2.59544 -0.50606,-4.53796 -1.5181,-5.82755 -1.01209,-1.28955 -2.53019,-1.93433 -4.55431,-1.93436 -2.43224,3e-5 -4.35027,0.7754 -5.7541,2.32613 -1.40384,1.55077 -2.10576,3.66468 -2.10575,6.34175 l 0,15.49933 -4.52982,0 0,-38.09947 4.52982,0 0,14.93617 c 1.07735,-1.64867 2.34243,-2.8811 3.79525,-3.69731 1.46912,-0.81616 3.15862,-1.22425 5.06851,-1.22428 3.15045,3e-5 5.5337,0.97945 7.14977,2.93826 1.61602,1.94254 2.42404,4.80735 2.42407,8.59442"
           id="path3804" />
      </g>
    </g>
    <g
       id="g19246"
       style="filter:url(#filter19257)">
      <g
         transform="matrix(1.9999998,0,0,1.9895772,-284.97991,-226.86044)"
         style="fill:#ffffff;filter:url(#filter27515)"
         id="g18203">
        <path
           inkscape:connector-curvature="0"
           id="path18171"
           d="m 255,171.78573 c 0.54556,-0.0873 2.75867,10.62754 5.76595,27.4002 1.6584,7.15988 3.77645,15.37651 6.82226,24.04498 2.22494,6.32063 4.87911,12.91424 8.57306,19.12567 0.55643,0.93565 1.13114,1.85277 1.72511,2.74982 4.57591,6.9309 9.48514,13.23656 14.17986,18.98269 5.38556,6.5911 10.51559,12.41479 14.96877,17.36758 10.25155,10.81358 16.52145,17.80298 16.18055,18.18486 0,0 0,0 0,0 0,0 0,0 0,0 0,0 0,0 0,0 0,0 0,0 0,0 0,0 0,0 0,0 0,0 0,0 0,0 0,0 0,0 0,0 0,0 0,0 0,0 0,0 0,0 0,0 0,0 0,0 0,0 -10e-4,0.001 -10e-4,0.001 -10e-4,0.001 0,0 0,0 -0.001,10e-4 0,0 0,0 0,0 0,0 0,0 0,0 0,0 0,0 0,0 0,0 0,0 0,0 0,0 0,0 0,0 0,0 0,0 0,0 0,0 0,0 0,0 0,0 0,0 0,0 0,0 0,0 0,0 0,0 0,0 0,10e-6 -0.37252,0.34991 -7.29244,-5.98875 -18.03916,-16.39353 -4.6908,-4.78733 -10.03877,-10.50842 -15.61201,-17.07579 -4.84645,-5.7102 -9.89563,-12.06365 -14.59106,-19.13839 -0.62619,-0.94617 -1.23071,-1.91144 -1.81433,-2.89404 -3.87446,-6.52309 -6.57784,-13.34928 -8.74118,-19.82325 C 261.4275,215.396 259.48217,206.98499 258.07997,199.6847 255.6959,182.75401 254.45444,171.873 255,171.78573 z"
           style="fill:#ffffff;fill-rule:evenodd;stroke:none" />
        <path
           sodipodi:nodetypes="ccccccccscscsscssccssscsscscscccscccc"
           inkscape:connector-curvature="0"
           id="path18175"
           d="m 291.42857,166.42849 c -0.0571,-0.0101 -0.0927,-0.137 -0.1044,-0.38973 l 0,0 c 0.0346,-0.20401 2.77387,2.8098 -1.53767,-3.39885 -0.64255,-1.34742 2.6575,2.82829 2.92552,2.93282 0.26803,0.10449 0.53447,0.27519 0.7554,0.45167 0.81055,0.5577 1.72668,1.43675 2.69513,2.51625 l 10e-6,0 c 1.42004,1.57488 3.07605,3.62813 4.86428,6.13179 1.78824,2.50366 3.70293,5.4617 5.77421,8.72417 2.93058,4.613 6.14655,9.92871 9.53023,15.78754 3.38369,5.85883 6.93499,12.2605 10.59591,19.00806 1.11271,2.73789 2.24465,5.53174 3.37752,8.3758 2.583,6.48455 4.99483,12.81243 7.07556,18.88263 2.08073,6.07019 3.82896,11.88269 5.19136,17.30283 1.29519,5.17367 2.14926,9.97646 2.74561,14.25123 0.59635,4.27477 0.93512,8.02199 1.13563,11.11098 0.2005,3.08899 0.26192,5.52051 0.2454,7.18072 -0.0165,1.66021 -0.11171,2.54971 -0.2697,2.56074 -0.15799,0.011 -0.36911,-0.85708 -0.6434,-2.48925 -0.27429,-1.63217 -0.61112,-4.02913 -1.06396,-7.06757 -0.45284,-3.03844 -1.02078,-6.71896 -1.81365,-10.89972 -0.79287,-4.18075 -1.81064,-8.8618 -3.22707,-13.87775 -1.48417,-5.27664 -3.31688,-10.94424 -5.44648,-16.89467 -2.12961,-5.95042 -4.55492,-12.18435 -7.11651,-18.62169 -1.12348,-2.82335 -2.23955,-5.60594 -3.33041,-8.34156 -3.6002,-6.72393 -7.03412,-13.11809 -10.25935,-18.99501 -3.22522,-5.87693 -6.24194,-11.2368 -8.94755,-15.92797 -1.93448,-3.35019 -3.66337,-6.36714 -5.25168,-8.93986 -1.58831,-2.57272 -3.0308,-4.70582 -4.24369,-6.39103 l 0,-1e-5 c -0.84162,-1.16173 -1.54503,-2.06944 -2.18148,-2.69936 -0.22329,-0.18811 -0.39159,-0.37151 -0.54188,-0.49461 -0.15029,-0.1231 -0.28223,-0.1881 -0.41185,-0.19895 -0.0813,-0.0699 -0.22199,0.0251 -0.29439,0.11048 l 0,0 c -0.0925,0.20341 -0.16959,0.31 -0.22665,0.29988 z"
           style="fill:#ffffff;fill-rule:evenodd;stroke:none" />
        <path
           inkscape:connector-curvature="0"
           id="path18179"
           d="m 279.2857,320.71428 c -0.003,0.007 -0.01,0.0136 -0.0196,0.0182 -0.01,0.004 -0.0225,0.008 -0.0386,0.009 -0.0321,0.004 -0.0768,0.002 -0.13411,-0.005 0,0 0,0 0,0 0,0 0,0 0,0 -0.11393,-0.0144 -0.2775,-0.0505 -0.48847,-0.10918 0,0 0,0 0,0 0,0 0,0 0,0 -0.4168,-0.11587 -1.02011,-0.32017 -1.7934,-0.62058 0,0 0,0 0,0 -1.50659,-0.58528 -3.66496,-1.53614 -6.34225,-2.92384 0,0 0,0 0,0 -5.05448,-2.61955 -12.02119,-6.78962 -19.61969,-13.17464 0,0 0,0 0,0 -3.53164,-2.9666 -7.19153,-6.42174 -10.77432,-10.42318 -3.5828,-4.00144 -7.08822,-8.5498 -10.2624,-13.67757 0,0 0,0 0,0 -3.13588,-5.06999 -5.91276,-10.70482 -8.12496,-16.80606 -2.21219,-6.10125 -3.85893,-12.66841 -4.74793,-19.53239 -0.73791,-5.67498 -1.05046,-11.5575 -0.81021,-17.51861 0.29765,-7.38541 1.43834,-14.5784 3.41027,-21.34849 1.7047,-5.84239 4.03658,-11.33935 6.83161,-16.351 2.79502,-5.01164 6.05269,-9.53763 9.60292,-13.50393 6.6043,-7.35943 14.11951,-12.62397 21.27171,-16.29163 7.15221,-3.66765 13.94436,-5.75175 19.622,-6.93223 5.67765,-1.18048 10.25449,-1.47544 13.36428,-1.50917 3.10979,-0.0337 4.76748,0.17374 4.76748,0.34315 0,0.16941 -1.65551,0.29069 -4.70816,0.63188 -3.05265,0.34118 -7.51693,0.92302 -13.00555,2.33485 -5.48862,1.41183 -12.01544,3.67071 -18.83898,7.40062 -6.82355,3.7299 -13.94741,8.94192 -20.13875,16.08225 -3.34361,3.84565 -6.40687,8.21743 -9.03463,13.04397 -2.62777,4.82653 -4.81966,10.10746 -6.42439,15.70836 -1.86405,6.49396 -2.93845,13.40842 -3.22144,20.53138 -0.22841,5.74928 0.0621,11.43765 0.74814,16.94086 0.82741,6.6098 2.36989,12.94669 4.44703,18.84981 2.07714,5.90311 4.68833,11.37193 7.64255,16.31237 0,0 0,0 0,0 2.99068,5.00556 6.30994,9.48023 9.71127,13.44999 3.40134,3.96976 6.88452,7.43507 10.24953,10.44485 0,0 0,0 0,0 7.24747,6.47997 13.90597,10.87934 18.71165,13.8049 0,0 0,0 0,0 2.54588,1.54968 4.58096,2.68105 5.97945,3.46271 0,0 0,0 0,0 0.71783,0.40122 1.2671,0.70953 1.63373,0.933 0,0 0,0 0,0 10e-6,0 10e-6,0 10e-6,0 0.18558,0.11312 0.32403,0.20434 0.41382,0.27471 0,0 0,0 0,0 0,0 0,0 0,0 0.0452,0.0354 0.078,0.0655 0.0983,0.0904 0.0101,0.0125 0.0171,0.0237 0.0209,0.0336 0.004,0.0103 0.004,0.0191 10e-4,0.0266 z"
           style="fill:#ffffff;fill-rule:evenodd;stroke:none" />
        <path
           inkscape:connector-curvature="0"
           id="path18183"
           d="m 220.71431,204.99998 c -0.38659,-0.38797 4.27287,-5.7212 11.89106,-13.76436 3.06355,-2.93199 6.68343,-6.21087 10.90269,-9.42619 4.21927,-3.21531 9.04251,-6.36053 14.52155,-8.83965 0.79344,-0.35901 1.59122,-0.69961 2.39274,-1.02106 4.83446,-1.92354 9.60421,-3.42641 14.11896,-4.56389 4.51476,-1.13749 8.77374,-1.91092 12.60621,-2.4157 0,0 0,0 0,0 3.18814,-0.42152 6.09696,-0.67789 8.62663,-0.77621 2.52967,-0.0983 4.68005,-0.0422 6.36871,0.0899 0,0 0,0 0,0 1.66946,0.13244 2.89094,0.27362 3.59539,0.42106 0,0 0,0 0,0 0.2524,0.0528 0.43843,0.10647 0.5549,0.16079 0,0 0,0 0,0 0,0 0,0 0,0 0.0428,0.0199 0.0761,0.04 0.10001,0.0601 0,0 0,0 0,0 0.0164,0.0693 0.0251,0.0711 0.0325,0.0739 0.006,0.002 0.003,0.001 0.003,0.001 0,0 0.003,-8.8e-4 -0.003,0.001 -0.007,0.003 -0.0161,0.005 -0.0325,0.0739 0,0 0,0 0,0 -0.0239,0.0201 -0.0572,0.0402 -0.10001,0.0601 0,0 0,0 0,0 0,0 0,0 0,0 -0.11647,0.0543 -0.3025,0.10796 -0.5549,0.16079 0,0 0,0 0,0 -0.70445,0.14744 -1.92593,0.28862 -3.59539,0.42106 0,0 0,0 0,0 -1.6522,0.13211 -3.73802,0.32171 -6.18752,0.64021 -2.4495,0.31849 -5.26318,0.76939 -8.37071,1.3521 0,0 0,0 0,0 -7.43179,1.39851 -16.48803,3.71376 -25.86412,7.48469 -0.75283,0.30029 -1.50353,0.61858 -2.2518,0.95423 -5.16711,2.31779 -9.80105,5.26693 -13.95761,8.27667 -4.15656,3.00974 -7.83709,6.0726 -11.03856,8.78171 -8.02924,7.54832 -13.37165,12.1812 -13.75823,11.79323 z"
           style="fill:#ffffff;fill-rule:evenodd;stroke:none" />
        <path
           inkscape:connector-curvature="0"
           id="path18187"
           d="m 218.92858,245.71427 c -0.0137,-0.01 -0.022,-0.0268 -0.0251,-0.0513 -0.003,-0.0238 -0.001,-0.0545 0.006,-0.0921 0,0 0,0 0,0 0.0137,-0.0748 0.0471,-0.17672 0.1,-0.30474 0,0 0,0 0,0 0,0 0,0 0,0 0.10481,-0.25375 0.28639,-0.61047 0.54349,-1.06188 0,0 0,0 0,0 0.50355,-0.88411 1.29793,-2.1338 2.378,-3.68602 0,0 0,0 0,0 2.05011,-2.94644 5.12766,-6.99942 9.26138,-11.65431 0,0 0,0 0,0 3.75212,-4.2263 8.37772,-8.97166 14.01496,-13.62595 0,0 0,0 0,0 4.90481,-4.05505 10.61819,-8.08765 17.29703,-11.10968 2.45682,-1.10803 4.98312,-2.16878 7.56774,-3.18002 11.38427,-4.45412 22.49625,-7.43239 32.15179,-9.66378 1e-5,0 1e-5,0 1e-5,0 0,0 0,0 0,0 6.33795,-1.46691 12.10059,-2.56669 17.03478,-3.30204 0,0 0,0 0,0 0,0 0,0 0,0 0,0 0,0 0,0 2.25202,-0.33576 4.34085,-0.5967 6.23694,-0.76272 0,0 0,0 0,0 1.4746,-0.13082 2.87419,-0.21875 4.14747,-0.15993 0,0 0,0 0,0 2.97127,0.14813 5.14095,0.30849 6.36222,0.47732 0,0 0,0 0,0 0.43337,0.0599 0.74731,0.12089 0.93528,0.18277 0,0 0,0 0,0 0,0 0,0 0,0 0.0694,0.0228 0.12156,0.0458 0.15628,0.0689 0,0 0,0 0,0 0,0 0,0 0,0 0.013,0.0431 0.0235,0.0556 0.0316,0.0621 0.006,0.004 0.009,0.005 0.0124,0.006 0.004,6.9e-4 0.002,4.1e-4 0.002,4.1e-4 0,0 0.002,-2.8e-4 -0.002,4.1e-4 -0.003,5.1e-4 -0.007,0.001 -0.0124,0.006 -0.008,0.006 -0.0186,0.019 -0.0316,0.0621 0,0 0,0 0,0 0,0 0,0 0,0 -0.0347,0.0231 -0.0869,0.046 -0.15628,0.0688 0,0 0,0 0,0 0,0 0,0 0,0 -0.18797,0.0619 -0.50191,0.12286 -0.93528,0.18277 0,0 0,0 0,0 -1.22127,0.16883 -3.39095,0.32919 -6.36222,0.47732 0,0 0,0 0,0 -1.15934,0.0588 -2.45281,0.25896 -3.90498,0.49576 0,0 0,0 0,0 -1.83568,0.30273 -3.86228,0.69211 -6.06775,1.14856 0,0 0,0 0,0 0,0 0,0 0,0 0,0 0,0 0,0 -4.82986,0.99996 -10.47509,2.3191 -16.71521,3.95242 0,0 0,0 0,0 0,0 -10e-6,0 -10e-6,0 -9.51718,2.49429 -20.44223,5.58584 -31.60861,9.95442 -2.53516,0.99182 -5.01235,2.02373 -7.42185,3.09465 -6.31626,2.79666 -11.84722,6.59311 -16.71721,10.41857 0,0 0,0 0,0 -5.58649,4.39436 -10.27902,8.88209 -14.18029,12.85722 0,0 0,0 0,0 -4.29673,4.37924 -7.61933,8.15151 -9.97198,10.82314 0,0 0,0 0,0 -1.2394,1.40748 -2.20669,2.51055 -2.89581,3.25036 0,0 0,0 0,0 -0.35186,0.37773 -0.63077,0.66033 -0.83583,0.84069 0,0 0,0 0,0 0,0 0,0 0,0 -0.10357,0.0911 -0.18821,0.15605 -0.25379,0.19389 0,0 0,0 0,0 -0.033,0.019 -0.0611,0.0312 -0.0844,0.0364 -0.024,0.005 -0.0429,0.003 -0.0566,-0.006 z"
           style="fill:#ffffff;fill-rule:evenodd;stroke:none" />
        <path
           inkscape:connector-curvature="0"
           id="path18191"
           d="m 236.42858,285.35711 c -0.35098,-0.19806 2.26613,-5.591 6.96822,-14.52162 0,0 0,0 0,0 2.88291,-4.24125 6.79701,-9.06356 11.87147,-13.873 5.07445,-4.80945 11.31578,-9.59919 18.53527,-13.78845 5.49798,-3.18245 11.51839,-6.06598 17.92303,-8.53958 9.64469,-3.72496 19.2563,-6.18536 28.10296,-7.78881 1e-5,0 1e-5,0 1e-5,0 6.74748,-1.22787 13.09304,-2.01066 18.79487,-2.38723 5.70183,-0.37658 10.75966,-0.35123 14.97284,-0.10813 8.61243,0.50073 13.73128,0.97227 13.90163,1.34398 0.002,0.0334 0.001,0.02 0.001,0.02 0,0 0.002,-0.0132 -0.002,0.0199 -0.18918,0.36249 -5.32547,0.57107 -13.95225,0.62976 -4.1509,0.0286 -9.10833,0.24518 -14.69107,0.82105 -5.58273,0.57587 -11.79141,1.51509 -18.41621,2.8443 0,0 0,0 0,1e-5 -8.66001,1.74422 -18.04122,4.23857 -27.45194,7.86892 -6.24928,2.41077 -12.12394,5.17971 -17.50421,8.21341 -7.02193,3.9487 -13.14423,8.42605 -18.19651,12.91818 -5.05229,4.49213 -9.04081,8.9944 -12.08777,12.95958 -1e-5,1e-5 -1e-5,1e-5 -1e-5,1e-5 -5.16062,8.5476 -8.41833,13.56571 -8.76931,13.36766 z"
           style="fill:#ffffff;fill-rule:evenodd;stroke:none" />
        <path
           inkscape:connector-curvature="0"
           id="path18195"
           d="m 275.35715,318.21426 c -0.40445,-0.25084 2.48749,-5.73256 7.51722,-14.43942 0,0 0,0 0,0 2.4116,-3.64083 5.44044,-7.77782 9.28751,-11.95571 3.2635,-3.54814 7.1562,-7.17633 11.95754,-10.08295 2.96865,-1.78517 6.14486,-3.38745 9.47516,-4.81304 7.41019,-3.17208 14.84491,-5.1998 21.5477,-6.78734 0,0 0,0 0,0 0,0 0,0 0,0 5.43352,-1.29441 10.48022,-2.23122 14.9336,-2.88308 0,0 0,0 0,0 4.03043,-0.59127 7.61428,-0.96689 10.56911,-1.04537 0,0 0,0 0,0 1.87714,-0.0562 3.57245,-0.12553 4.93623,-0.0326 1.36378,0.093 2.39909,0.32295 3.06017,0.55554 0,0 0,0 0,0 0.15751,0.0291 0.35719,0.1047 0.50016,0.20481 0.14297,0.1001 0.23422,0.22135 0.27284,0.3236 0,0 0,0 0,0 0,0 0,0 0,0 0.0308,0.1023 7.3e-4,0.18716 -0.0314,0.2296 0,0 0,0 0,0 -0.0331,1.7e-4 -0.0564,0.002 -0.0714,0.004 -0.0157,0.002 -0.0231,0.006 -0.0254,0.008 0,0 0,0 0,0 -7.1e-4,4.4e-4 -5.9e-4,3e-4 -5.9e-4,3e-4 0,0 -1.2e-4,1.4e-4 2.2e-4,-5.3e-4 0,0 0,0 0,0 10e-4,-0.002 0.004,-0.009 -9.4e-4,-0.0238 -0.004,-0.0139 -0.0143,-0.0356 -0.0374,-0.0671 0,0 0,0 0,0 -0.0146,-0.0133 -0.0444,-0.0159 -0.0682,0.002 0,0 0,0 0,0 0,0 0,0 0,0 -0.0474,-0.0312 -0.10658,-0.0469 -0.20768,-0.0428 -0.1011,0.004 -0.24754,0.0332 -0.44622,-0.003 0,0 0,0 0,0 -0.66564,-0.01 -1.64495,-0.0191 -2.93191,0.0992 -1.28697,0.11824 -2.88435,0.38911 -4.80992,0.61458 0,0 0,0 0,0 -2.84856,0.35139 -6.29481,0.96842 -10.25679,1.76713 0,0 0,0 0,0 -4.35258,0.87961 -9.28256,1.99624 -14.59765,3.41156 0,0 0,0 0,0 0,0 0,0 0,0 -6.58494,1.7623 -13.82602,3.83462 -20.96119,6.87935 -3.20669,1.36837 -6.25001,2.88225 -9.08738,4.55599 -4.44925,2.60438 -8.19194,5.96363 -11.4561,9.27871 -3.81373,3.8767 -6.93008,7.74888 -9.51208,11.15594 0,0 -10e-6,0 -10e-6,0 -5.53011,8.31922 -9.15078,13.33806 -9.55524,13.08721 z"
           style="fill:#ffffff;fill-rule:evenodd;stroke:none" />
        <path
           inkscape:connector-curvature="0"
           id="path18199"
           d="m 269.1964,279.64284 c -0.009,0.0146 -0.0236,0.0259 -0.0431,0.034 -0.0187,0.008 -0.0421,0.0123 -0.0701,0.0139 0,0 0,0 0,0 -0.056,0.003 -0.13059,-0.006 -0.22267,-0.0278 0,0 0,0 0,0 0,0 0,0 0,0 -0.18464,-0.0438 -0.44087,-0.13859 -0.76006,-0.28561 0,0 0,0 0,0 -0.64001,-0.29481 -1.53916,-0.80327 -2.63165,-1.53547 0,0 0,0 0,0 -2.21518,-1.48468 -5.24706,-3.91091 -8.5437,-7.29529 0,0 0,0 0,0 -2.65977,-2.73162 -5.49747,-6.07942 -8.24311,-9.9866 -2.74564,-3.90718 -5.39667,-8.37395 -7.74888,-13.24011 -1.80446,-3.733 -3.31832,-7.45365 -4.5692,-11.03092 -1.5441,-4.40062 -2.99376,-8.54589 -4.10464,-12.30695 -1.11089,-3.76106 -1.88574,-7.1352 -2.33592,-9.93443 0,0 0,0 0,0 -0.26956,-1.67784 -0.36961,-3.13663 -0.40672,-4.3412 -0.0376,-1.26556 -0.0625,-2.24512 -0.0559,-2.91973 0.007,-0.67461 0.0539,-1.0453 0.18211,-1.07233 0.12818,-0.027 0.33116,0.29348 0.56913,0.94083 0.23796,0.64735 0.50192,1.62449 0.76217,2.87893 0.24155,1.15259 0.53066,2.53516 0.96052,4.07651 0,0 0,0 0,1e-5 0.73554,2.65822 1.7473,5.86141 3.0489,9.48092 1.3016,3.61952 2.89669,7.65639 4.54535,12.04814 1.30046,3.44871 2.8123,7.03911 4.55932,10.65557 2.27733,4.71424 4.76611,9.06693 7.30115,12.9232 2.53503,3.85627 5.11489,7.21672 7.50602,10.035 0,0 0,0 0,0 2.96447,3.49528 5.62193,6.13306 7.50109,7.93157 0,0 0,0 0,0 0.92689,0.88711 1.65928,1.56904 2.1454,2.0585 0,0 0,0 0,0 0.24244,0.24411 0.42222,0.43956 0.53393,0.58872 0,0 0,0 0,0 0,0 0,0 0,0 0.056,0.0747 0.0947,0.13756 0.1153,0.18897 0,0 0,0 0,0 0.0103,0.0257 0.0161,0.0485 0.0172,0.0685 10e-4,0.0209 -0.003,0.0386 -0.012,0.0532 z"
           style="fill:#ffffff;fill-rule:evenodd;stroke:none" />
      </g>
    </g>
  </g>
</svg>
