<?xml version="1.0" encoding="UTF-8" standalone="no"?>
<!-- Generator: Adobe Illustrator 16.0.0, SVG Export Plug-In . SVG Version: 6.00 Build 0)  -->

<svg
   xmlns:dc="http://purl.org/dc/elements/1.1/"
   xmlns:cc="http://creativecommons.org/ns#"
   xmlns:rdf="http://www.w3.org/1999/02/22-rdf-syntax-ns#"
   xmlns:svg="http://www.w3.org/2000/svg"
   xmlns="http://www.w3.org/2000/svg"
   xmlns:sodipodi="http://sodipodi.sourceforge.net/DTD/sodipodi-0.dtd"
   xmlns:inkscape="http://www.inkscape.org/namespaces/inkscape"
   version="1.1"
   id="Capa_1"
   x="0px"
   y="0px"
   width="42.5px"
   height="46.125px"
   viewBox="0 0 42.5 46.125"
   enable-background="new 0 0 42.5 46.125"
   xml:space="preserve"
   inkscape:version="0.48.4 r9939"
   sodipodi:docname="checkMesh.svg"><metadata
     id="metadata47"><rdf:RDF><cc:Work
         rdf:about=""><dc:format>image/svg+xml</dc:format><dc:type
           rdf:resource="http://purl.org/dc/dcmitype/StillImage" /></cc:Work></rdf:RDF></metadata><defs
     id="defs45" /><sodipodi:namedview
     pagecolor="#ffffff"
     bordercolor="#666666"
     borderopacity="1"
     objecttolerance="10"
     gridtolerance="10"
     guidetolerance="10"
     inkscape:pageopacity="0"
     inkscape:pageshadow="2"
     inkscape:window-width="1680"
     inkscape:window-height="1020"
     id="namedview43"
     showgrid="false"
     inkscape:zoom="5.1165312"
     inkscape:cx="21.25"
     inkscape:cy="23.0625"
     inkscape:window-x="1362"
     inkscape:window-y="-6"
     inkscape:window-maximized="1"
     inkscape:current-layer="Capa_1" /><g
     id="g3"
     transform="matrix(0.73375783,0,0,0.73375783,7.155837,11.624853)"
     style="fill:#102947;fill-opacity:1"><path
       d="m 15.489,3.512 4.631,2.314 c 0.546,0.275 1.438,0.275 1.983,0 l 4.631,-2.314 c 0.547,-0.272 0.547,-0.719 0,-0.992 L 22.103,0.206 c -0.544,-0.273 -1.438,-0.273 -1.982,0 L 15.489,2.52 c -0.546,0.273 -0.546,0.721 0,0.992 z"
       id="path5"
       inkscape:connector-curvature="0"
       style="fill:#102947;fill-opacity:1" /><path
       d="m 22.84,7.188 4.631,2.316 c 0.545,0.271 1.438,0.271 1.984,0 l 4.63,-2.316 c 0.546,-0.273 0.546,-0.719 0,-0.992 L 29.455,3.88 c -0.546,-0.271 -1.439,-0.271 -1.984,0 L 22.84,6.196 c -0.546,0.273 -0.546,0.719 0,0.992 z"
       id="path7"
       inkscape:connector-curvature="0"
       style="fill:#102947;fill-opacity:1" /><path
       d="M 26.734,9.869 22.103,7.555 c -0.544,-0.273 -1.438,-0.273 -1.982,0 L 15.49,9.869 c -0.546,0.273 -0.546,0.721 0,0.992 l 4.631,2.316 c 0.546,0.273 1.438,0.273 1.982,0 l 4.631,-2.316 c 0.547,-0.271 0.547,-0.719 0,-0.992 z"
       id="path9"
       inkscape:connector-curvature="0"
       style="fill:#102947;fill-opacity:1" /><path
       d="M 12.888,25.182 8.42,22.93 C 7.886,22.664 7.5,22.994 7.5,23.661 v 5.668 c 0,0.668 0.439,1.435 0.973,1.697 l 4.412,2.254 c 0.533,0.266 0.865,-0.064 0.865,-0.732 v -5.67 c 0,-0.668 -0.33,-1.431 -0.862,-1.696 z"
       id="path11"
       inkscape:connector-curvature="0"
       style="fill:#102947;fill-opacity:1" /><path
       d="m 19.34,13.546 -4.608,-2.314 c -0.546,-0.273 -1.428,-0.273 -1.974,0 L 8.053,13.546 C 7.666,13.74 7.5,14.146 7.5,14.549 c 0,1.891 0,3.779 0,5.67 0,0.668 0.515,1.432 1.047,1.697 l 4.375,2.251 c 0.534,0.267 0.828,-0.063 0.828,-0.729 V 17.92 c 0,-0.396 0.279,-0.795 0.66,-0.984 1.599,-0.799 3.286,-1.598 4.885,-2.396 0.545,-0.273 0.591,-0.721 0.045,-0.994 z"
       id="path13"
       inkscape:connector-curvature="0"
       style="fill:#102947;fill-opacity:1" /><path
       d="m 20.24,14.861 c -1.526,0.785 -2.991,1.569 -4.517,2.352 -0.372,0.19 -0.57,0.675 -0.57,1.093 v 5.753 c 0,0.681 0.358,1.456 0.885,1.725 0.982,0.503 2.903,1.396 4.096,1.945 0.658,0.302 1.415,0.302 2.072,-0.002 1.348,-0.622 3.624,-1.677 4.398,-2.063 0.533,-0.265 0.895,-1.029 0.895,-1.699 v -5.667 c 0,-0.412 -0.2,-0.889 -0.576,-1.077 -0.788,-0.394 -1.561,-0.788 -2.333,-1.182 -0.009,0.003 -0.019,0.006 -0.027,0.01 L 22.226,14.862 C 21.688,14.586 20.781,14.586 20.24,14.861 z"
       id="path15"
       inkscape:connector-curvature="0"
       style="fill:#102947;fill-opacity:1" /><path
       d="M 12.888,34.182 8.42,31.928 C 7.886,31.664 7.5,31.992 7.5,32.66 v 5.67 c 0,0.668 0.439,1.433 0.973,1.697 l 4.412,2.252 c 0.533,0.266 0.865,-0.064 0.865,-0.73 v -5.67 c 0,-0.671 -0.33,-1.432 -0.862,-1.697 z"
       id="path17"
       inkscape:connector-curvature="0"
       style="fill:#102947;fill-opacity:1" /><path
       d="M 11.97,9.87 7.371,7.555 C 6.825,7.282 5.949,7.282 5.402,7.555 L 0.626,9.869 C 0.239,10.064 0,10.471 0,10.875 c 0,1.889 0,3.777 0,5.668 0,0.67 0.59,1.432 1.123,1.697 l 4.339,2.254 C 5.993,20.758 6.25,20.43 6.25,19.76 v -5.516 c 0,-0.396 0.354,-0.793 0.735,-0.984 1.598,-0.799 3.324,-1.598 4.921,-2.398 0.546,-0.271 0.61,-0.719 0.064,-0.992 z"
       id="path19"
       inkscape:connector-curvature="0"
       style="fill:#102947;fill-opacity:1" /><path
       d="M 5.505,21.393 0.978,19.141 C 0.445,18.875 0,19.205 0,19.873 v 5.667 c 0,0.668 0.556,1.433 1.089,1.699 l 4.355,2.252 C 5.976,29.757 6.25,29.428 6.25,28.759 V 23.09 c 0,-0.666 -0.214,-1.432 -0.745,-1.697 z"
       id="path21"
       inkscape:connector-curvature="0"
       style="fill:#102947;fill-opacity:1" /><path
       d="M 5.505,30.393 0.978,28.139 C 0.445,27.875 0,28.203 0,28.871 v 5.67 c 0,0.668 0.556,1.433 1.089,1.697 L 5.444,38.49 C 5.976,38.756 6.25,38.428 6.25,37.758 V 32.09 c 0,-0.671 -0.214,-1.434 -0.745,-1.697 z"
       id="path23"
       inkscape:connector-curvature="0"
       style="fill:#102947;fill-opacity:1" /><path
       d="m 8.139,7.187 4.631,2.316 c 0.546,0.271 1.439,0.271 1.984,0 l 4.631,-2.316 c 0.546,-0.273 0.546,-0.719 0,-0.992 L 14.754,3.879 c -0.545,-0.272 -1.438,-0.272 -1.984,0 L 8.139,6.195 c -0.546,0.273 -0.546,0.719 0,0.992 z"
       id="path25"
       inkscape:connector-curvature="0"
       style="fill:#102947;fill-opacity:1" /><path
       d="m 26.668,26.563 c 0,0 -2.79,1.389 -4.413,2.17 -0.694,0.333 -1.507,0.325 -2.193,-0.023 l -4.229,-2.146 c -0.533,-0.265 -0.974,0.065 -0.974,0.731 -0.004,1.894 -0.004,3.775 -0.004,5.67 0,0.668 0.435,1.433 0.967,1.699 l 4.403,2.155 c 0.695,0.34 1.509,0.336 2.2,-0.013 l 4.256,-2.143 c 0.531,-0.267 0.967,-1.031 0.967,-1.699 0,-1.895 0,-3.776 -0.004,-5.67 -10e-4,-0.666 -0.443,-0.996 -0.976,-0.731 z"
       id="path27"
       inkscape:connector-curvature="0"
       style="fill:#102947;fill-opacity:1" /><path
       d="m 34.08,22.93 -4.469,2.252 C 29.08,25.447 28.75,26.21 28.75,26.878 v 5.67 c 0,0.668 0.332,0.998 0.865,0.732 l 4.412,-2.254 C 34.561,30.764 35,29.998 35,29.33 v -5.668 c 0,-0.668 -0.387,-0.998 -0.92,-0.732 z"
       id="path29"
       inkscape:connector-curvature="0"
       style="fill:#102947;fill-opacity:1" /><path
       d="M 34.447,13.546 29.27,11.125 c -0.539,-0.277 -1.22,-0.358 -1.759,-0.082 l -4.592,2.395 c -0.539,0.275 -0.549,0.752 -0.006,1.029 1.215,0.624 4.672,2.218 5.176,2.47 0.381,0.189 0.66,0.588 0.66,0.984 v 5.518 c 0,0.666 0.294,0.996 0.828,0.729 l 4.375,-2.251 C 34.484,21.651 35,20.887 35,20.219 v -5.67 c 0,-0.403 -0.166,-0.809 -0.553,-1.003 z"
       id="path31"
       inkscape:connector-curvature="0"
       style="fill:#102947;fill-opacity:1" /><path
       d="m 34.08,31.928 -4.469,2.254 c -0.531,0.265 -0.861,1.026 -0.861,1.696 v 5.67 c 0,0.666 0.332,0.996 0.865,0.73 l 4.412,-2.252 C 34.561,39.762 35,38.998 35,38.33 v -5.67 c 0,-0.668 -0.387,-0.996 -0.92,-0.732 z"
       id="path33"
       inkscape:connector-curvature="0"
       style="fill:#102947;fill-opacity:1" /><path
       d="M 41.584,9.75 36.861,7.401 c -0.539,-0.277 -1.496,-0.277 -2.035,0 L 30.425,9.64 c -0.538,0.277 -0.588,0.793 -0.051,1.068 1.496,0.77 4.937,2.448 5.142,2.55 0.381,0.191 0.734,0.588 0.734,0.984 v 5.516 c 0,0.67 0.257,0.998 0.788,0.734 l 4.339,-2.254 C 41.91,17.973 42.5,17.211 42.5,16.541 v -5.668 c 0,-0.143 -0.125,-0.769 -0.916,-1.123 z"
       id="path35"
       inkscape:connector-curvature="0"
       style="fill:#102947;fill-opacity:1" /><path
       d="m 41.521,19.141 -4.526,2.252 c -0.531,0.265 -0.745,1.031 -0.745,1.697 v 5.669 c 0,0.669 0.273,0.998 0.807,0.732 l 4.354,-2.252 C 41.943,26.972 42.5,26.208 42.5,25.54 v -5.667 c 0,-0.668 -0.445,-0.998 -0.979,-0.732 z"
       id="path37"
       inkscape:connector-curvature="0"
       style="fill:#102947;fill-opacity:1" /><path
       d="m 41.521,28.139 -4.526,2.254 c -0.531,0.263 -0.745,1.026 -0.745,1.696 v 5.668 c 0,0.671 0.273,0.998 0.807,0.732 l 4.354,-2.252 C 41.943,35.972 42.5,35.208 42.5,34.54 v -5.67 c 0,-0.667 -0.445,-0.995 -0.979,-0.731 z"
       id="path39"
       inkscape:connector-curvature="0"
       style="fill:#102947;fill-opacity:1" /><path
       d="m 26.668,35.562 c 0,0 -2.653,1.354 -4.21,2.147 -0.694,0.354 -1.516,0.36 -2.215,0.017 l -4.411,-2.164 c -0.533,-0.266 -0.974,0.064 -0.974,0.732 -0.004,1.893 -0.004,3.772 -0.004,5.668 0,0.67 0.434,1.434 0.966,1.699 l 4.604,2.013 c 0.654,0.286 1.399,0.275 2.046,-0.028 l 4.21,-1.984 c 0.532,-0.266 0.967,-1.029 0.967,-1.699 0,-1.896 0,-3.775 -0.004,-5.668 0,-0.669 -0.442,-0.999 -0.975,-0.733 z"
       id="path41"
       inkscape:connector-curvature="0"
       style="fill:#102947;fill-opacity:1" /></g><g
     transform="matrix(1.95472,0,0,1.95472,-5.2278002,-10.439402)"
     style="fill:#aad400;display:block"
     id="check"><polygon
       points="21,7 19.6,5.6 9,16.2 4.8,12 3.4,13.4 9,19 "
       id="polygon5"
       style="fill:#aad400" /></g></svg>