<?xml version="1.0" encoding="UTF-8" standalone="no"?>
<!-- Generator: Adobe Illustrator 16.0.0, SVG Export Plug-In . SVG Version: 6.00 Build 0)  -->

<svg
   xmlns:dc="http://purl.org/dc/elements/1.1/"
   xmlns:cc="http://creativecommons.org/ns#"
   xmlns:rdf="http://www.w3.org/1999/02/22-rdf-syntax-ns#"
   xmlns:svg="http://www.w3.org/2000/svg"
   xmlns="http://www.w3.org/2000/svg"
   xmlns:sodipodi="http://sodipodi.sourceforge.net/DTD/sodipodi-0.dtd"
   xmlns:inkscape="http://www.inkscape.org/namespaces/inkscape"
   version="1.1"
   id="Layer_1"
   x="0px"
   y="0px"
   width="96px"
   height="96px"
   viewBox="0 0 96 96"
   enable-background="new 0 0 96 96"
   xml:space="preserve"
   inkscape:version="0.48.5 r10040"
   sodipodi:docname="decomposition.svg"><metadata
     id="metadata11"><rdf:RDF><cc:Work
         rdf:about=""><dc:format>image/svg+xml</dc:format><dc:type
           rdf:resource="http://purl.org/dc/dcmitype/StillImage" /></cc:Work></rdf:RDF></metadata><defs
     id="defs9"><marker
       inkscape:stockid="TriangleOutM"
       orient="auto"
       refY="0.0"
       refX="0.0"
       id="TriangleOutM"
       style="overflow:visible"><path
         id="path3940"
         d="M 5.77,0.0 L -2.88,5.0 L -2.88,-5.0 L 5.77,0.0 z "
         style="fill-rule:evenodd;stroke:#000000;stroke-width:1.0pt"
         transform="scale(0.4)" /></marker><marker
       inkscape:stockid="Arrow1Lend"
       orient="auto"
       refY="0.0"
       refX="0.0"
       id="Arrow1Lend"
       style="overflow:visible;"><path
         id="path3798"
         d="M 0.0,0.0 L 5.0,-5.0 L -12.5,0.0 L 5.0,5.0 L 0.0,0.0 z "
         style="fill-rule:evenodd;stroke:#000000;stroke-width:1.0pt;"
         transform="scale(0.8) rotate(180) translate(12.5,0)" /></marker><inkscape:path-effect
       effect="skeletal"
       id="path-effect2991"
       is_visible="true"
       pattern="M 0,5 C 0,2.24 2.24,0 5,0 7.76,0 10,2.24 10,5 10,7.76 7.76,10 5,10 2.24,10 0,7.76 0,5 z"
       copytype="single_stretched"
       prop_scale="1"
       scale_y_rel="false"
       spacing="0"
       normal_offset="0"
       tang_offset="0"
       prop_units="false"
       vertical_pattern="false"
       fuse_tolerance="0" /><marker
       inkscape:stockid="DotS"
       orient="auto"
       refY="0.0"
       refX="0.0"
       id="DotS"
       style="overflow:visible"><path
         id="path4004"
         d="M -2.5,-1.0 C -2.5,1.7600000 -4.7400000,4.0 -7.5,4.0 C -10.260000,4.0 -12.5,1.7600000 -12.5,-1.0 C -12.5,-3.7600000 -10.260000,-6.0 -7.5,-6.0 C -4.7400000,-6.0 -2.5,-3.7600000 -2.5,-1.0 z "
         style="fill-rule:evenodd;stroke:#000000;stroke-width:1.0pt"
         transform="scale(0.2) translate(7.4, 1)" /></marker><marker
       inkscape:stockid="DotM"
       orient="auto"
       refY="0.0"
       refX="0.0"
       id="DotM"
       style="overflow:visible"><path
         id="path4001"
         d="M -2.5,-1.0 C -2.5,1.7600000 -4.7400000,4.0 -7.5,4.0 C -10.260000,4.0 -12.5,1.7600000 -12.5,-1.0 C -12.5,-3.7600000 -10.260000,-6.0 -7.5,-6.0 C -4.7400000,-6.0 -2.5,-3.7600000 -2.5,-1.0 z "
         style="fill-rule:evenodd;stroke:#000000;stroke-width:1.0pt"
         transform="scale(0.4) translate(7.4, 1)" /></marker><marker
       inkscape:stockid="DotL"
       orient="auto"
       refY="0.0"
       refX="0.0"
       id="DotL"
       style="overflow:visible"><path
         id="path3998"
         d="M -2.5,-1.0 C -2.5,1.7600000 -4.7400000,4.0 -7.5,4.0 C -10.260000,4.0 -12.5,1.7600000 -12.5,-1.0 C -12.5,-3.7600000 -10.260000,-6.0 -7.5,-6.0 C -4.7400000,-6.0 -2.5,-3.7600000 -2.5,-1.0 z "
         style="fill-rule:evenodd;stroke:#000000;stroke-width:1.0pt"
         transform="scale(0.8) translate(7.4, 1)" /></marker></defs><sodipodi:namedview
     pagecolor="#ffffff"
     bordercolor="#666666"
     borderopacity="1"
     objecttolerance="10"
     gridtolerance="10"
     guidetolerance="10"
     inkscape:pageopacity="0"
     inkscape:pageshadow="2"
     inkscape:window-width="1680"
     inkscape:window-height="1020"
     id="namedview7"
     showgrid="false"
     inkscape:zoom="4.9166666"
     inkscape:cx="82.664817"
     inkscape:cy="38.6591"
     inkscape:window-x="1360"
     inkscape:window-y="0"
     inkscape:window-maximized="1"
     inkscape:current-layer="Layer_1" /><g
     id="g5193"
     style="stroke-width:3;stroke-miterlimit:4;stroke-dasharray:none"
     transform="translate(-0.28763666,0)"><path
       sodipodi:nodetypes="cccc"
       inkscape:connector-curvature="0"
       id="path3787"
       d="m 9.2805734,46.899368 33.2501626,0 16.784937,-16.784937 27.655183,0"
       style="fill:none;stroke:#102947;stroke-width:3;stroke-linecap:butt;stroke-linejoin:miter;stroke-miterlimit:4;stroke-opacity:1;stroke-dasharray:none;marker-end:none" /><path
       style="fill:none;stroke:#102947;stroke-width:3;stroke-linecap:butt;stroke-linejoin:miter;stroke-miterlimit:4;stroke-opacity:1;stroke-dasharray:none;marker-mid:none;marker-end:none"
       d="m 9.2805734,46.879621 33.2501626,0 16.784937,16.784937 27.655183,0"
       id="path3789"
       inkscape:connector-curvature="0"
       sodipodi:nodetypes="cccc" /></g><path
     sodipodi:type="star"
     style="fill:#102947;fill-opacity:1;stroke:#102947;stroke-width:3;stroke-miterlimit:4;stroke-opacity:1;stroke-dasharray:none"
     id="path5197"
     sodipodi:sides="3"
     sodipodi:cx="-42.857861"
     sodipodi:cy="-9.2750177"
     sodipodi:r1="10.071391"
     sodipodi:r2="5.0356956"
     sodipodi:arg1="0"
     sodipodi:arg2="1.0471976"
     inkscape:flatsided="false"
     inkscape:rounded="0"
     inkscape:randomized="0"
     d="m -32.786469,-9.2750177 -7.553544,4.3610404 -7.553543,4.36104011 0,-8.72208081 0,-8.72208 7.553543,4.36104 z"
     inkscape:transform-center-x="-1.0654407"
     transform="matrix(0.42315544,0,0,0.42315544,102.84453,33.768342)" /><path
     transform="matrix(0.42315544,0,0,0.42315544,103.04792,67.6158)"
     inkscape:transform-center-x="-1.0654407"
     d="m -32.786469,-9.2750177 -7.553544,4.3610404 -7.553543,4.36104011 0,-8.72208081 0,-8.72208 7.553543,4.36104 z"
     inkscape:randomized="0"
     inkscape:rounded="0"
     inkscape:flatsided="false"
     sodipodi:arg2="1.0471976"
     sodipodi:arg1="0"
     sodipodi:r2="5.0356956"
     sodipodi:r1="10.071391"
     sodipodi:cy="-9.2750177"
     sodipodi:cx="-42.857861"
     sodipodi:sides="3"
     id="path5199"
     style="fill:#102947;fill-opacity:1;stroke:#102947;stroke-width:3;stroke-miterlimit:4;stroke-opacity:1;stroke-dasharray:none"
     sodipodi:type="star" /></svg>