<?xml version="1.0" encoding="UTF-8" standalone="no"?>
<!-- Generator: Adobe Illustrator 16.0.0, SVG Export Plug-In . SVG Version: 6.00 Build 0)  -->

<svg
   xmlns:dc="http://purl.org/dc/elements/1.1/"
   xmlns:cc="http://creativecommons.org/ns#"
   xmlns:rdf="http://www.w3.org/1999/02/22-rdf-syntax-ns#"
   xmlns:svg="http://www.w3.org/2000/svg"
   xmlns="http://www.w3.org/2000/svg"
   xmlns:sodipodi="http://sodipodi.sourceforge.net/DTD/sodipodi-0.dtd"
   xmlns:inkscape="http://www.inkscape.org/namespaces/inkscape"
   version="1.1"
   id="Layer_1"
   x="0px"
   y="0px"
   width="96px"
   height="96px"
   viewBox="0 0 96 96"
   enable-background="new 0 0 96 96"
   xml:space="preserve"
   inkscape:version="0.48.5 r10040"
   sodipodi:docname="refinementCone.svg"><metadata
     id="metadata11"><rdf:RDF><cc:Work
         rdf:about=""><dc:format>image/svg+xml</dc:format><dc:type
           rdf:resource="http://purl.org/dc/dcmitype/StillImage" /></cc:Work></rdf:RDF></metadata><defs
     id="defs9" /><sodipodi:namedview
     pagecolor="#ffffff"
     bordercolor="#666666"
     borderopacity="1"
     objecttolerance="10"
     gridtolerance="10"
     guidetolerance="10"
     inkscape:pageopacity="0"
     inkscape:pageshadow="2"
     inkscape:window-width="1680"
     inkscape:window-height="1020"
     id="namedview7"
     showgrid="false"
     inkscape:zoom="3.4766083"
     inkscape:cx="57.298643"
     inkscape:cy="41.898305"
     inkscape:window-x="1360"
     inkscape:window-y="0"
     inkscape:window-maximized="1"
     inkscape:current-layer="Layer_1" /><path
     inkscape:connector-curvature="0"
     d="M 85.222567,69.75626 50.922887,10.835803 c -0.60589,-1.040409 -1.71913,-1.6805739 -2.92302,-1.6805739 -1.20389,0 -2.31736,0.6401649 -2.92303,1.6805739 L 10.795633,69.724692 c -0.0212,0.0363 -0.0417,0.07306 -0.0613,0.110039 -0.80026,1.500408 -1.20592,2.827415 -1.20592,3.943589 0,7.170572 10.157414,9.672831 13.495114,10.495192 6.72884,1.658251 15.59893,2.571259 24.97659,2.571259 9.37767,0 18.24775,-0.913233 24.97614,-2.571259 3.33769,-0.822135 13.49533,-3.32462 13.49533,-10.495192 -2.3e-4,-1.634575 -0.7829,-3.222248 -1.24899,-4.02206 z m -37.2227,7.566983 c -7.71761,0 -15.15381,-0.67241 -20.93898,-1.893662 -2.67408,-0.564401 -4.5488,-1.149997 -5.8377,-1.651261 1.28867,-0.501489 3.16317,-1.08686 5.83815,-1.651261 5.78201,-1.221027 13.21798,-1.893212 20.93853,-1.893212 7.72054,0 15.15674,0.672185 20.93941,1.893212 2.67431,0.564401 4.54881,1.149997 5.83748,1.651261 -1.28935,0.501715 -3.16407,1.087086 -5.83815,1.651261 -5.78494,1.221252 -13.22113,1.893662 -20.93874,1.893662 z m 0,-16.611375 c -8.05224,0 -15.76421,0.677371 -22.04636,1.922525 l 22.04636,-37.87167 22.04657,37.871896 c -6.27944,-1.245154 -13.99118,-1.922751 -22.04657,-1.922751 z"
     id="path3"
     style="fill:#102947;fill-opacity:1" /></svg>