<?xml version="1.0" encoding="UTF-8" standalone="no"?>
<!-- Generator: Adobe Illustrator 16.0.0, SVG Export Plug-In . SVG Version: 6.00 Build 0)  -->

<svg
   xmlns:dc="http://purl.org/dc/elements/1.1/"
   xmlns:cc="http://creativecommons.org/ns#"
   xmlns:rdf="http://www.w3.org/1999/02/22-rdf-syntax-ns#"
   xmlns:svg="http://www.w3.org/2000/svg"
   xmlns="http://www.w3.org/2000/svg"
   xmlns:sodipodi="http://sodipodi.sourceforge.net/DTD/sodipodi-0.dtd"
   xmlns:inkscape="http://www.inkscape.org/namespaces/inkscape"
   version="1.1"
   id="Layer_1"
   x="0px"
   y="0px"
   width="96px"
   height="96px"
   viewBox="0 0 96 96"
   enable-background="new 0 0 96 96"
   xml:space="preserve"
   inkscape:version="0.91 r"
   sodipodi:docname="refinementBox.svg"><metadata
     id="metadata11"><rdf:RDF><cc:Work
         rdf:about=""><dc:format>image/svg+xml</dc:format><dc:type
           rdf:resource="http://purl.org/dc/dcmitype/StillImage" /></cc:Work></rdf:RDF></metadata><defs
     id="defs9" /><sodipodi:namedview
     pagecolor="#ffffff"
     bordercolor="#666666"
     borderopacity="1"
     objecttolerance="10"
     gridtolerance="10"
     guidetolerance="10"
     inkscape:pageopacity="0"
     inkscape:pageshadow="2"
     inkscape:window-width="1680"
     inkscape:window-height="1020"
     id="namedview7"
     showgrid="false"
     inkscape:zoom="3.4766083"
     inkscape:cx="0.70578833"
     inkscape:cy="25.30912"
     inkscape:window-x="1354"
     inkscape:window-y="0"
     inkscape:window-maximized="1"
     inkscape:current-layer="Layer_1" /><g
     id="g3"
     style="fill:#102947;fill-opacity:1"><path
       d="M90.114,22.6c-0.188-0.567-1.101-1.043-1.602-1.268L49.249,1.648l-0.118-0.061c-0.955-0.552-1.899-0.177-2.249-0.002   C46.486,1.784,7.59,21.24,7.59,21.24c-0.142,0.045-1.383,0.442-1.659,1.472c-0.223,0.82-0.173,1.251-0.166,1.251l0,0L5.771,71.83   c-0.014,0.084-0.121,0.834,0.305,1.57c0.439,0.761,1.216,1.009,1.222,1.004l39.212,19.6c0.064,0.042,0.66,0.41,1.466,0.41h0.037   c0.807-0.013,1.408-0.362,1.435-0.381l39.244-19.621c0.255-0.115,0.847-0.405,1.141-0.745c0.162-0.144,0.412-0.515,0.412-1.748   v-47.93C90.25,23.897,90.281,23.101,90.114,22.6z M45.026,87.06L11.315,70.205V28.452l33.711,16.856V87.06z M48.007,40.342   l-33.065-16.58L48.003,7.234l33.065,16.577L48.007,40.342z M84.694,70.205L50.981,87.06V45.309l33.713-16.856V70.205z"
       id="path5"
       style="fill:#102947;fill-opacity:1" /></g></svg>