<?xml version="1.0" encoding="utf-8"?>
<!-- Generator: Adobe Illustrator 16.0.0, SVG Export Plug-In . SVG Version: 6.00 Build 0)  -->
<!DOCTYPE svg PUBLIC "-//W3C//DTD SVG 1.1//EN" "http://www.w3.org/Graphics/SVG/1.1/DTD/svg11.dtd">
<svg version="1.1" id="Ebene_1" xmlns="http://www.w3.org/2000/svg" xmlns:xlink="http://www.w3.org/1999/xlink" x="0px" y="0px"
	 width="80px" height="80px" viewBox="0 0 80 80" enable-background="new 0 0 80 80" xml:space="preserve">
<path d="M2.318,74.529c-1.24,1.252-1.24,3.28,0,4.532c1.239,1.251,3.248,1.252,4.488,0l36.267-36.627
	c1.239-1.252,1.239-3.282,0-4.534L6.806,1.273c-1.24-1.252-3.248-1.252-4.488,0c-1.24,1.252-1.24,3.28-0.001,4.532l33.075,34.362
	L2.318,74.529z"/>
<path d="M77.069,74.529c1.24,1.252,1.24,3.28,0,4.532c-1.238,1.251-3.248,1.252-4.488,0L36.314,42.435
	c-1.239-1.252-1.239-3.282,0-4.534L72.581,1.273c1.24-1.252,3.248-1.252,4.488,0s1.24,3.28,0.001,4.532L43.996,40.167L77.069,74.529
	z"/>
</svg>
