<?xml version="1.0" encoding="UTF-8" standalone="no"?>
<!-- Generator: Adobe Illustrator 15.0.0, SVG Export Plug-In . SVG Version: 6.00 Build 0)  -->

<svg
   xmlns:dc="http://purl.org/dc/elements/1.1/"
   xmlns:cc="http://creativecommons.org/ns#"
   xmlns:rdf="http://www.w3.org/1999/02/22-rdf-syntax-ns#"
   xmlns:svg="http://www.w3.org/2000/svg"
   xmlns="http://www.w3.org/2000/svg"
   xmlns:sodipodi="http://sodipodi.sourceforge.net/DTD/sodipodi-0.dtd"
   xmlns:inkscape="http://www.inkscape.org/namespaces/inkscape"
   version="1.1"
   id="Capa_1"
   x="0px"
   y="0px"
   width="600px"
   height="600px"
   viewBox="0 0 600 600"
   enable-background="new 0 0 600 600"
   xml:space="preserve"
   inkscape:version="0.48.4 r9939"
   sodipodi:docname="closeToRight.svg"><metadata
     id="metadata13"><rdf:RDF><cc:Work
         rdf:about=""><dc:format>image/svg+xml</dc:format><dc:type
           rdf:resource="http://purl.org/dc/dcmitype/StillImage" /></cc:Work></rdf:RDF></metadata><defs
     id="defs11" /><sodipodi:namedview
     pagecolor="#ffffff"
     bordercolor="#666666"
     borderopacity="1"
     objecttolerance="10"
     gridtolerance="10"
     guidetolerance="10"
     inkscape:pageopacity="0"
     inkscape:pageshadow="2"
     inkscape:window-width="1366"
     inkscape:window-height="712"
     id="namedview9"
     showgrid="false"
     inkscape:zoom="0.39333333"
     inkscape:cx="261.86441"
     inkscape:cy="300"
     inkscape:window-x="-4"
     inkscape:window-y="-6"
     inkscape:window-maximized="1"
     inkscape:current-layer="g3" /><g
     id="g3"><path
       d="m 431.61516,67.810986 -396.217355,0 0,464.378024 396.217355,0 c 7.77041,0 14.07075,6.30154 14.07075,14.07316 0,7.77041 -6.30155,14.07075 -14.07075,14.07075 l -410.288105,0 c -7.77161,0 -14.0731497,-6.30154 -14.0731497,-14.07075 l 0,-492.521929 c 0,-7.771618 6.3015397,-14.073159 14.0731497,-14.073159 l 410.289315,0 c 7.77041,0 14.07074,6.301541 14.07074,14.073159 -0.001,7.769204 -6.30154,14.070745 -14.07195,14.070745 z"
       id="path5"
       inkscape:connector-curvature="0" /><path
       d="m 566.54671,301.27426 -86.7696,86.78287 c -5.49771,5.4977 -14.40146,5.4977 -19.89794,0 -5.49771,-5.49046 -5.49771,-14.40146 0,-19.89795 l 62.74745,-62.76194 -262.95926,0 c -7.77041,0 -14.07074,-6.30154 -14.07074,-14.07075 0,-7.77163 6.30154,-14.07317 14.07074,-14.07317 l 262.95926,0 -62.74745,-62.74504 c -5.49771,-5.49771 -5.49771,-14.40387 0,-19.90037 2.74824,-2.74582 6.34861,-4.12055 9.95018,-4.12055 3.59916,0 7.19951,1.37473 9.94776,4.12055 l 86.7696,86.76961 c 5.49649,5.49529 5.49649,14.40145 0,19.89674 z"
       id="path7"
       inkscape:connector-curvature="0" /></g></svg>