<?xml version="1.0" encoding="UTF-8" standalone="no"?>
<!-- Created with Inkscape (http://www.inkscape.org/) -->

<svg
   xmlns:dc="http://purl.org/dc/elements/1.1/"
   xmlns:cc="http://creativecommons.org/ns#"
   xmlns:rdf="http://www.w3.org/1999/02/22-rdf-syntax-ns#"
   xmlns:svg="http://www.w3.org/2000/svg"
   xmlns="http://www.w3.org/2000/svg"
   xmlns:sodipodi="http://sodipodi.sourceforge.net/DTD/sodipodi-0.dtd"
   xmlns:inkscape="http://www.inkscape.org/namespaces/inkscape"
   width="482.51971"
   height="174.90858"
   id="svg3146"
   version="1.1"
   inkscape:version="0.48.4 r9939"
   sodipodi:docname="New document 2">
  <defs
     id="defs3148">
    <clipPath
       clipPathUnits="userSpaceOnUse"
       id="clipPath116">
      <path
         d="m 408.556,194.09 c 1.06,-3.829 4.36,-5.85 6.29,-7.02 l 0,0 c 0.08,-0.049 0.16,-0.1 0.25,-0.15 l 0,0 12.12,0 c -0.03,5.5 -4.329,8.12 -6.64,9.53 l 0,0 c -0.08,0.05 -0.17,0.111 -0.26,0.17 l 0,0 c -4.15,-0.519 -8.45,-1.58 -11.76,-2.53"
         id="path118"
         inkscape:connector-curvature="0" />
    </clipPath>
    <linearGradient
       x1="0"
       y1="0"
       x2="1"
       y2="0"
       gradientUnits="userSpaceOnUse"
       gradientTransform="matrix(-4e-7,-9.7001953,-9.7001953,4e-7,417.88623,196.62012)"
       spreadMethod="pad"
       id="linearGradient124">
      <stop
         style="stop-opacity:1;stop-color:#09552c"
         offset="0"
         id="stop126" />
      <stop
         style="stop-opacity:1;stop-color:#47afd2"
         offset="1"
         id="stop128" />
    </linearGradient>
    <clipPath
       clipPathUnits="userSpaceOnUse"
       id="clipPath96">
      <path
         d="m 414.846,206.23 c -2.319,-1.42 -6.629,-4.06 -6.629,-9.58 l 0,0 c 0,-0.93 0.119,-1.79 0.339,-2.56 l 0,0 c 3.31,0.95 7.61,2.011 11.76,2.53 l 0,0 c -0.01,0.01 -0.03,0.021 -0.05,0.03 l 0,0 c 0.11,0.06 0.21,0.131 0.31,0.191 l 0,0 c 2.03,1.229 5.59,3.409 6.451,7.64 l 0,0 c -3.761,1.059 -8.181,1.589 -11.991,1.869 l 0,0 c -0.069,-0.049 -0.13,-0.089 -0.19,-0.12"
         id="path98"
         inkscape:connector-curvature="0" />
    </clipPath>
    <linearGradient
       x1="0"
       y1="0"
       x2="1"
       y2="0"
       gradientUnits="userSpaceOnUse"
       gradientTransform="matrix(-5e-7,12.259766,12.259766,5e-7,417.62158,194.09082)"
       spreadMethod="pad"
       id="linearGradient104">
      <stop
         style="stop-opacity:1;stop-color:#a6c932"
         offset="0"
         id="stop106" />
      <stop
         style="stop-opacity:1;stop-color:#1ea35f"
         offset="1"
         id="stop108" />
    </linearGradient>
    <clipPath
       clipPathUnits="userSpaceOnUse"
       id="clipPath16">
      <path
         d="m 415.126,245.471 c -0.1,-0.061 -0.19,-0.12 -0.28,-0.171 l 0,0 c -2.319,-1.42 -6.629,-4.05 -6.629,-9.579 l 0,0 c 0,-2.011 0.569,-3.641 1.409,-4.96 l 0,0 c 0.29,0.17 0.6,0.339 0.92,0.509 l 0,0 c 2.76,1.501 6.22,3.22 9.72,4.451 l 0,0 c 0.011,0.01 0.03,0.02 0.04,0.02 l 0,0 c 0.1,0.07 0.18,0.119 0.27,0.169 l 0,0 c 2.32,1.41 6.63,4.05 6.64,9.561 l 0,0 -12.09,0 z"
         id="path18"
         inkscape:connector-curvature="0" />
    </clipPath>
    <linearGradient
       x1="0"
       y1="0"
       x2="1"
       y2="0"
       gradientUnits="userSpaceOnUse"
       gradientTransform="matrix(-6e-7,-14.709961,-14.709961,6e-7,417.71631,245.4707)"
       spreadMethod="pad"
       id="linearGradient24">
      <stop
         style="stop-opacity:1;stop-color:#a3d9f5"
         offset="0"
         id="stop26" />
      <stop
         style="stop-opacity:1;stop-color:#3163a5"
         offset="1"
         id="stop28" />
    </linearGradient>
    <clipPath
       clipPathUnits="userSpaceOnUse"
       id="clipPath36">
      <path
         d="m 410.546,231.27 c -0.32,-0.179 -0.619,-0.35 -0.92,-0.509 l 0,0 c 1.46,-2.32 3.74,-3.721 5.22,-4.621 l 0,0 c 0.06,-0.039 0.121,-0.07 0.19,-0.119 l 0,0 c 3.721,0.899 8.33,1.7 12.081,1.359 l 0,0 c -0.671,4.57 -4.431,6.87 -6.541,8.15 l 0,0 c -0.07,0.04 -0.14,0.08 -0.209,0.13 l 0,0 c -0.041,0.02 -0.071,0.04 -0.101,0.061 l 0,0 c -3.5,-1.231 -6.96,-2.95 -9.72,-4.451"
         id="path38"
         inkscape:connector-curvature="0" />
    </clipPath>
    <linearGradient
       x1="0"
       y1="0"
       x2="1"
       y2="0"
       gradientUnits="userSpaceOnUse"
       gradientTransform="matrix(10.43604,-10.43604,-10.43604,-10.43604,413.70898,234.84277)"
       spreadMethod="pad"
       id="linearGradient44">
      <stop
         style="stop-opacity:1;stop-color:#0c3f63"
         offset="0"
         id="stop46" />
      <stop
         style="stop-opacity:1;stop-color:#bc3d56"
         offset="1"
         id="stop48" />
    </linearGradient>
    <clipPath
       clipPathUnits="userSpaceOnUse"
       id="clipPath56">
      <path
         d="m 415.036,226.021 c 0.04,-0.021 0.08,-0.041 0.12,-0.071 l 0,0 c -0.11,-0.059 -0.21,-0.13 -0.31,-0.19 l 0,0 c -2.31,-1.4 -6.6,-4.03 -6.629,-9.51 l 0,0 c 3.989,-1.28 8.92,-0.75 12.169,-0.13 l 0,0 c -0.04,0.02 -0.08,0.04 -0.12,0.071 l 0,0 c 0.11,0.059 0.21,0.129 0.31,0.189 l 0,0 c 2.32,1.41 6.64,4.051 6.64,9.57 l 0,0 c 0,0.5 -0.04,0.98 -0.099,1.43 l 0,0 c -0.605,0.055 -1.232,0.08 -1.874,0.08 l 0,0 c -3.34,0 -7.086,-0.685 -10.207,-1.439"
         id="path58"
         inkscape:connector-curvature="0" />
    </clipPath>
    <linearGradient
       x1="0"
       y1="0"
       x2="1"
       y2="0"
       gradientUnits="userSpaceOnUse"
       gradientTransform="matrix(15.01497,15.01497,15.01497,-15.01497,410.5542,213.91211)"
       spreadMethod="pad"
       id="linearGradient64">
      <stop
         style="stop-opacity:1;stop-color:#932152"
         offset="0"
         id="stop66" />
      <stop
         style="stop-opacity:1;stop-color:#ec6024"
         offset="1"
         id="stop68" />
    </linearGradient>
    <clipPath
       clipPathUnits="userSpaceOnUse"
       id="clipPath76">
      <path
         d="m 408.217,216.191 c 0,-5.531 4.31,-8.17 6.629,-9.581 l 0,0 c 0.1,-0.059 0.2,-0.129 0.31,-0.191 l 0,0 c -0.04,-0.028 -0.08,-0.049 -0.12,-0.069 l 0,0 c 3.81,-0.28 8.23,-0.81 11.991,-1.869 l 0,0 c 0.119,0.599 0.189,1.249 0.189,1.938 l 0,0 c 0,5.531 -4.32,8.161 -6.64,9.581 l 0,0 c -0.06,0.04 -0.12,0.07 -0.19,0.12 l 0,0 c -3.249,-0.62 -8.18,-1.15 -12.169,0.13 l 0,0 0,-0.059 z"
         id="path78"
         inkscape:connector-curvature="0" />
    </clipPath>
    <linearGradient
       x1="0"
       y1="0"
       x2="1"
       y2="0"
       gradientUnits="userSpaceOnUse"
       gradientTransform="matrix(-5e-7,-11.769531,-11.769531,5e-7,417.71631,216.25)"
       spreadMethod="pad"
       id="linearGradient84">
      <stop
         style="stop-opacity:1;stop-color:#d77e1e"
         offset="0"
         id="stop86" />
      <stop
         style="stop-opacity:1;stop-color:#b6d61f"
         offset="1"
         id="stop88" />
    </linearGradient>
  </defs>
  <sodipodi:namedview
     id="base"
     pagecolor="#ffffff"
     bordercolor="#666666"
     borderopacity="1.0"
     inkscape:pageopacity="0.0"
     inkscape:pageshadow="2"
     inkscape:zoom="1.979899"
     inkscape:cx="276.17113"
     inkscape:cy="81.333669"
     inkscape:document-units="px"
     inkscape:current-layer="layer1"
     showgrid="false"
     fit-margin-top="0"
     fit-margin-left="0"
     fit-margin-right="0"
     fit-margin-bottom="0"
     inkscape:window-width="1366"
     inkscape:window-height="712"
     inkscape:window-x="-4"
     inkscape:window-y="-6"
     inkscape:window-maximized="1" />
  <metadata
     id="metadata3151">
    <rdf:RDF>
      <cc:Work
         rdf:about="">
        <dc:format>image/svg+xml</dc:format>
        <dc:type
           rdf:resource="http://purl.org/dc/dcmitype/StillImage" />
        <dc:title></dc:title>
      </cc:Work>
    </rdf:RDF>
  </metadata>
  <g
     inkscape:label="Layer 1"
     inkscape:groupmode="layer"
     id="layer1"
     transform="translate(-138.74014,-382.05074)">
    <g
       id="g12"
       transform="matrix(2.8964993,0,0,-2.8964993,-864.53973,1097.4696)">
      <g
         id="g14"
         clip-path="url(#clipPath16)">
        <g
           id="g20">
          <g
             id="g22">
            <path
               d="m 415.126,245.471 c -0.1,-0.061 -0.19,-0.12 -0.28,-0.171 l 0,0 c -2.319,-1.42 -6.629,-4.05 -6.629,-9.579 l 0,0 c 0,-2.011 0.569,-3.641 1.409,-4.96 l 0,0 c 0.29,0.17 0.6,0.339 0.92,0.509 l 0,0 c 2.76,1.501 6.22,3.22 9.72,4.451 l 0,0 c 0.011,0.01 0.03,0.02 0.04,0.02 l 0,0 c 0.1,0.07 0.18,0.119 0.27,0.169 l 0,0 c 2.32,1.41 6.63,4.05 6.64,9.561 l 0,0 -12.09,0 z"
               style="fill:url(#linearGradient24);stroke:none"
               id="path30"
               inkscape:connector-curvature="0" />
          </g>
        </g>
      </g>
    </g>
    <g
       id="g32"
       transform="matrix(2.8964993,0,0,-2.8964993,-864.53973,1097.4696)">
      <g
         id="g34"
         clip-path="url(#clipPath36)">
        <g
           id="g40">
          <g
             id="g42">
            <path
               d="m 410.546,231.27 c -0.32,-0.179 -0.619,-0.35 -0.92,-0.509 l 0,0 c 1.46,-2.32 3.74,-3.721 5.22,-4.621 l 0,0 c 0.06,-0.039 0.121,-0.07 0.19,-0.119 l 0,0 c 3.721,0.899 8.33,1.7 12.081,1.359 l 0,0 c -0.671,4.57 -4.431,6.87 -6.541,8.15 l 0,0 c -0.07,0.04 -0.14,0.08 -0.209,0.13 l 0,0 c -0.041,0.02 -0.071,0.04 -0.101,0.061 l 0,0 c -3.5,-1.231 -6.96,-2.95 -9.72,-4.451"
               style="fill:url(#linearGradient44);stroke:none"
               id="path50"
               inkscape:connector-curvature="0" />
          </g>
        </g>
      </g>
    </g>
    <g
       id="g52"
       transform="matrix(2.8964993,0,0,-2.8964993,-864.53973,1097.4696)">
      <g
         id="g54"
         clip-path="url(#clipPath56)">
        <g
           id="g60">
          <g
             id="g62">
            <path
               d="m 415.036,226.021 c 0.04,-0.021 0.08,-0.041 0.12,-0.071 l 0,0 c -0.11,-0.059 -0.21,-0.13 -0.31,-0.19 l 0,0 c -2.31,-1.4 -6.6,-4.03 -6.629,-9.51 l 0,0 c 3.989,-1.28 8.92,-0.75 12.169,-0.13 l 0,0 c -0.04,0.02 -0.08,0.04 -0.12,0.071 l 0,0 c 0.11,0.059 0.21,0.129 0.31,0.189 l 0,0 c 2.32,1.41 6.64,4.051 6.64,9.57 l 0,0 c 0,0.5 -0.04,0.98 -0.099,1.43 l 0,0 c -0.605,0.055 -1.232,0.08 -1.874,0.08 l 0,0 c -3.34,0 -7.086,-0.685 -10.207,-1.439"
               style="fill:url(#linearGradient64);stroke:none"
               id="path70"
               inkscape:connector-curvature="0" />
          </g>
        </g>
      </g>
    </g>
    <g
       id="g72"
       transform="matrix(2.8964993,0,0,-2.8964993,-864.53973,1097.4696)">
      <g
         id="g74"
         clip-path="url(#clipPath76)">
        <g
           id="g80">
          <g
             id="g82">
            <path
               d="m 408.217,216.191 c 0,-5.531 4.31,-8.17 6.629,-9.581 l 0,0 c 0.1,-0.059 0.2,-0.129 0.31,-0.191 l 0,0 c -0.04,-0.028 -0.08,-0.049 -0.12,-0.069 l 0,0 c 3.81,-0.28 8.23,-0.81 11.991,-1.869 l 0,0 c 0.119,0.599 0.189,1.249 0.189,1.938 l 0,0 c 0,5.531 -4.32,8.161 -6.64,9.581 l 0,0 c -0.06,0.04 -0.12,0.07 -0.19,0.12 l 0,0 c -3.249,-0.62 -8.18,-1.15 -12.169,0.13 l 0,0 0,-0.059 z"
               style="fill:url(#linearGradient84);stroke:none"
               id="path90"
               inkscape:connector-curvature="0" />
          </g>
        </g>
      </g>
    </g>
    <g
       id="g92"
       transform="matrix(2.8964993,0,0,-2.8964993,-864.53973,1097.4696)">
      <g
         id="g94"
         clip-path="url(#clipPath96)">
        <g
           id="g100">
          <g
             id="g102">
            <path
               d="m 414.846,206.23 c -2.319,-1.42 -6.629,-4.06 -6.629,-9.58 l 0,0 c 0,-0.93 0.119,-1.79 0.339,-2.56 l 0,0 c 3.31,0.95 7.61,2.011 11.76,2.53 l 0,0 c -0.01,0.01 -0.03,0.021 -0.05,0.03 l 0,0 c 0.11,0.06 0.21,0.131 0.31,0.191 l 0,0 c 2.03,1.229 5.59,3.409 6.451,7.64 l 0,0 c -3.761,1.059 -8.181,1.589 -11.991,1.869 l 0,0 c -0.069,-0.049 -0.13,-0.089 -0.19,-0.12"
               style="fill:url(#linearGradient104);stroke:none"
               id="path110"
               inkscape:connector-curvature="0" />
          </g>
        </g>
      </g>
    </g>
    <g
       id="g112"
       transform="matrix(2.8964993,0,0,-2.8964993,-864.53973,1097.4696)">
      <g
         id="g114"
         clip-path="url(#clipPath116)">
        <g
           id="g120">
          <g
             id="g122">
            <path
               d="m 408.556,194.09 c 1.06,-3.829 4.36,-5.85 6.29,-7.02 l 0,0 c 0.08,-0.049 0.16,-0.1 0.25,-0.15 l 0,0 12.12,0 c -0.03,5.5 -4.329,8.12 -6.64,9.53 l 0,0 c -0.08,0.05 -0.17,0.111 -0.26,0.17 l 0,0 c -4.15,-0.519 -8.45,-1.58 -11.76,-2.53"
               style="fill:url(#linearGradient124);stroke:none"
               id="path130"
               inkscape:connector-curvature="0" />
          </g>
        </g>
      </g>
    </g>
    <g
       id="g140"
       transform="matrix(2.8964993,0,0,-2.8964993,458.99073,420.5429)">
      <path
         d="m 0,0 c 1.905,2.239 4.296,4.028 7.185,5.364 1.019,0.473 2.069,0.862 3.149,1.165 l 0,6.615 C 6.899,12.519 3.743,11.359 0.867,9.679 -3.726,6.984 -7.228,3.343 -9.637,-1.251 c -2.409,-4.594 -3.61,-9.776 -3.61,-15.553 0,-3.41 0.425,-6.657 1.287,-9.74 0.861,-3.089 2.136,-5.91 3.822,-8.477 1.694,-2.561 3.715,-4.782 6.069,-6.658 2.354,-1.868 5.103,-3.331 8.265,-4.375 1.334,-0.436 2.719,-0.788 4.138,-1.043 l 0,7.215 c -0.758,0.231 -1.499,0.497 -2.221,0.808 -3.052,1.292 -5.613,3.046 -7.671,5.261 -2.056,2.209 -3.652,4.788 -4.793,7.731 -1.14,2.949 -1.711,6.05 -1.711,9.32 0,3.157 0.534,6.179 1.602,9.067 C -3.387,-4.808 -1.899,-2.24 0,0"
         style="fill:#333333;fill-opacity:1;fill-rule:nonzero;stroke:none"
         id="path142"
         inkscape:connector-curvature="0" />
    </g>
    <g
       id="g144"
       transform="matrix(2.8964993,0,0,-2.8964993,621.25986,400.42034)">
      <path
         d="m 0,0 0,6.342 -21.27,0 0,-60.059 21.27,0 0,6.342 -14.084,0 0,21.428 14.084,0 0,6.341 -14.084,0 0,19.606 L 0,0 z"
         style="fill:#333333;fill-opacity:1;fill-rule:nonzero;stroke:none"
         id="path146"
         inkscape:connector-curvature="0" />
    </g>
    <g
       id="g172"
       transform="matrix(2.8964993,0,0,-2.8964993,240.26534,520.86255)">
      <path
         d="m 0,0 c -0.641,-0.649 -1.28,-1.21 -1.91,-1.69 -1.021,-0.77 -2.181,-1.411 -3.49,-1.95 -1.31,-0.53 -2.48,-0.94 -3.51,-1.22 -1.03,-0.289 -2.25,-0.5 -3.681,-0.64 -1.42,-0.14 -2.55,-0.22 -3.38,-0.25 -0.83,-0.03 -1.88,-0.04 -3.149,-0.04 l -8.75,0 0,47.37 11.67,0 c 2.51,0 4.38,-0.11 5.62,-0.33 2.109,-0.37 4.14,-1.069 6.069,-2.12 1.031,-0.561 2.031,-1.22 3,-1.99 l 5.25,5.25 c -0.51,0.371 -1.029,0.74 -1.58,1.1 -2.149,1.4 -4.819,2.5 -8.01,3.271 -3.179,0.779 -6.719,1.159 -10.599,1.159 l -18.601,0 0,-60.05 13.021,0 c 2.309,0 4.099,0.01 5.37,0.04 1.26,0.03 2.87,0.14 4.809,0.34 1.951,0.19 3.71,0.49 5.29,0.88 3.04,0.76 5.76,1.939 8.151,3.53 1.189,0.79 2.269,1.63 3.24,2.51 L 0,0 z"
         style="fill:#333333;fill-opacity:1;fill-rule:nonzero;stroke:none"
         id="path174"
         inkscape:connector-curvature="0" />
    </g>
    <g
       id="g176"
       transform="matrix(2.8964993,0,0,-2.8964993,245.6427,400.78789)">
      <path
         d="m 0,0 c 0.55,-0.396 -2.362,-3.648 -1.729,-4.239 0.279,-0.26 3.678,2.506 4.035,2.125 0.283,-0.301 -2.675,-3.528 -2.361,-3.907 0.274,-0.326 3.974,2.019 4.263,1.633 0.258,-0.344 -3.038,-3.23 -2.775,-3.623 0.242,-0.361 4.166,1.585 4.407,1.182 0.224,-0.376 -3.346,-2.912 -3.126,-3.325 0.207,-0.39 4.306,1.157 4.505,0.736 0.188,-0.401 -3.612,-2.58 -3.433,-3.011 0.17,-0.41 4.398,0.741 4.555,0.303 0.15,-0.418 -3.839,-2.23 -3.702,-2.673 0.132,-0.425 4.447,0.333 4.563,-0.114 0.112,-0.432 -4.022,-1.878 -3.926,-2.33 0.094,-0.437 4.458,-0.059 4.537,-0.516 0.075,-0.439 -4.169,-1.533 -4.111,-1.992 0.057,-0.443 4.439,-0.429 4.479,-0.889 0.039,-0.446 -4.278,-1.195 -4.255,-1.658 0.021,-0.447 4.39,-0.775 4.395,-1.239 0.005,-0.464 -4.356,-0.881 -4.369,-1.328 -0.013,-0.464 4.318,-1.128 4.286,-1.575 -0.031,-0.463 -4.413,-0.525 -4.463,-0.97 -0.051,-0.462 4.206,-1.493 4.138,-1.937 -0.072,-0.459 -4.442,-0.135 -4.531,-0.574 -0.093,-0.455 4.054,-1.868 3.944,-2.302 -0.114,-0.451 -4.433,0.279 -4.564,-0.149 -0.135,-0.445 3.858,-2.248 3.708,-2.668 -0.157,-0.438 -4.387,0.709 -4.558,0.299 -0.179,-0.432 3.616,-2.619 3.426,-3.02 -0.201,-0.423 -4.292,1.145 -4.503,0.755 -0.223,-0.413 3.327,-2.977 3.098,-3.354 -0.246,-0.405 -4.154,1.578 -4.403,1.215 -0.267,-0.391 2.991,-3.317 2.728,-3.662 -0.294,-0.381 -3.962,2.013 -4.24,1.689 -0.323,-0.373 2.586,-3.647 2.297,-3.944 -0.365,-0.376 -3.722,2.441 -4.008,2.184 -0.638,-0.576 2.215,-3.879 1.663,-4.264"
         style="fill:none;stroke:#333333;stroke-width:0.5;stroke-linecap:butt;stroke-linejoin:miter;stroke-miterlimit:10;stroke-opacity:1;stroke-dasharray:none"
         id="path178"
         inkscape:connector-curvature="0" />
    </g>
  </g>
</svg>
