<?xml version="1.0" encoding="UTF-8" standalone="no"?>
<svg
   xmlns:dc="http://purl.org/dc/elements/1.1/"
   xmlns:cc="http://creativecommons.org/ns#"
   xmlns:rdf="http://www.w3.org/1999/02/22-rdf-syntax-ns#"
   xmlns:svg="http://www.w3.org/2000/svg"
   xmlns="http://www.w3.org/2000/svg"
   xmlns:sodipodi="http://sodipodi.sourceforge.net/DTD/sodipodi-0.dtd"
   xmlns:inkscape="http://www.inkscape.org/namespaces/inkscape"
   enable-background="new 0 0 500 500"
   height="500px"
   id="Layer_1"
   version="1.1"
   viewBox="0 0 500 500"
   width="500px"
   xml:space="preserve"
   inkscape:version="0.48.4 r9939"
   sodipodi:docname="goToNextApp.svg"><metadata
     id="metadata23"><rdf:RDF><cc:Work
         rdf:about=""><dc:format>image/svg+xml</dc:format><dc:type
           rdf:resource="http://purl.org/dc/dcmitype/StillImage" /></cc:Work></rdf:RDF></metadata><defs
     id="defs21" /><sodipodi:namedview
     pagecolor="#ffffff"
     bordercolor="#666666"
     borderopacity="1"
     objecttolerance="10"
     gridtolerance="10"
     guidetolerance="10"
     inkscape:pageopacity="0"
     inkscape:pageshadow="2"
     inkscape:window-width="1360"
     inkscape:window-height="689"
     id="namedview19"
     showgrid="false"
     inkscape:zoom="0.472"
     inkscape:cx="118.41507"
     inkscape:cy="204.86605"
     inkscape:window-x="-4"
     inkscape:window-y="-6"
     inkscape:window-maximized="1"
     inkscape:current-layer="g5" /><g
     id="g3"
     transform="matrix(2.2234678,0,0,2.2234678,-306.44798,-307.96801)"><g
       id="g5"><path
         inkscape:connector-curvature="0"
         d="M 323.75866,237.63843 184.68189,168.14949 c -4.05192,-1.83444 -8.20272,-4.63259 -12.35366,-4.63259 -6.65847,0 -12.35352,5.59616 -12.35352,12.35365 l 0,148.24321 c 0,6.75736 5.69505,12.35352 12.35352,12.35352 4.15094,0 8.30174,-2.79801 12.35366,-4.63259 l 139.07677,-69.48894 c 3.37882,-1.64313 9.16643,-5.01563 9.16643,-12.35366 0,-7.33803 -5.78761,-10.71053 -9.16643,-12.35366 z m -139.07677,66.57365 0,-108.43998 108.514,54.21999 -108.514,54.21999 z"
         id="path3"
         style="fill:#e74700;fill-opacity:1" /></g></g></svg>