<?xml version="1.0" encoding="UTF-8" standalone="no"?>
<svg
   xmlns:dc="http://purl.org/dc/elements/1.1/"
   xmlns:cc="http://creativecommons.org/ns#"
   xmlns:rdf="http://www.w3.org/1999/02/22-rdf-syntax-ns#"
   xmlns:svg="http://www.w3.org/2000/svg"
   xmlns="http://www.w3.org/2000/svg"
   xmlns:sodipodi="http://sodipodi.sourceforge.net/DTD/sodipodi-0.dtd"
   xmlns:inkscape="http://www.inkscape.org/namespaces/inkscape"
   enable-background="new 0 0 500 500"
   height="500px"
   id="Layer_1"
   version="1.1"
   viewBox="0 0 500 500"
   width="500px"
   xml:space="preserve"
   inkscape:version="0.48.4 r9939"
   sodipodi:docname="runApp.svg"><metadata
     id="metadata23"><rdf:RDF><cc:Work
         rdf:about=""><dc:format>image/svg+xml</dc:format><dc:type
           rdf:resource="http://purl.org/dc/dcmitype/StillImage" /></cc:Work></rdf:RDF></metadata><defs
     id="defs21" /><sodipodi:namedview
     pagecolor="#ffffff"
     bordercolor="#666666"
     borderopacity="1"
     objecttolerance="10"
     gridtolerance="10"
     guidetolerance="10"
     inkscape:pageopacity="0"
     inkscape:pageshadow="2"
     inkscape:window-width="1360"
     inkscape:window-height="689"
     id="namedview19"
     showgrid="false"
     inkscape:zoom="0.472"
     inkscape:cx="212.92373"
     inkscape:cy="250"
     inkscape:window-x="-4"
     inkscape:window-y="-6"
     inkscape:window-maximized="1"
     inkscape:current-layer="Layer_1" /><g
     id="g3"
     transform="matrix(2.2234678,0,0,2.2234678,-306.44798,-307.96801)"
     style="fill:#e74700;fill-opacity:1"><g
       id="g5"
       style="fill:#e74700;fill-opacity:1"><path
         d="m 323.771,180.378 c -7.091,9.689 -20.445,11.608 -29.828,4.287 -9.383,-7.322 -11.242,-21.112 -4.151,-30.801 7.091,-9.689 20.445,-11.608 29.828,-4.287 9.383,7.321 11.241,21.111 4.151,30.801 z"
         id="path7"
         inkscape:connector-curvature="0"
         style="fill:#e74700;fill-opacity:1" /><g
         id="g9"
         style="fill:#e74700;fill-opacity:1"><path
           d="M 214.461,253.595 195.54,279.45 157.327,268.057 c -5.718,-1.705 -11.691,1.7 -13.342,7.604 l -0.448,1.602 c -1.651,5.904 1.646,12.073 7.364,13.777 l 53.488,15.998 21.58,-29.488 -11.508,-23.955 z"
           id="path11"
           inkscape:connector-curvature="0"
           style="fill:#e74700;fill-opacity:1" /></g><g
         id="g13"
         style="fill:#e74700;fill-opacity:1"><path
           d="m 349.781,252.237 -26.867,-7.241 -13.017,-27.098 -15.612,21.334 10.48,21.816 0.009,-0.005 c 1.358,2.691 3.769,4.803 6.837,5.629 l 32.32,8.711 c 5.758,1.552 11.645,-2.01 13.148,-7.956 l 0.408,-1.614 c 1.502,-5.945 -1.948,-12.023 -7.706,-13.576 z"
           id="path15"
           inkscape:connector-curvature="0"
           style="fill:#e74700;fill-opacity:1" /></g><path
         d="m 268.952,179.133 -41.519,-8.146 c 0,0 -9.699,13.254 -12.099,16.533 l -20.138,27.518 c -3.588,4.903 -2.647,11.881 2.101,15.586 l 1.289,1.006 c 1.944,1.517 4.226,2.25 6.488,2.25 3.263,0 6.487,-1.524 8.605,-4.419 l 23.563,-32.199 16.127,3.164 -31.544,43.104 29.318,61.031 -25.541,34.901 c -3.588,4.903 -2.647,11.881 2.101,15.586 l 1.289,1.006 c 1.944,1.517 4.226,2.25 6.488,2.25 3.263,0 6.487,-1.524 8.605,-4.419 l 28.584,-39.059 c 1.297,-1.772 5.594,-7.644 5.594,-7.644 l -18.627,-38.777 45.006,-61.499 -35.655,-27.822 -0.035,0.049 z"
         id="path17"
         inkscape:connector-curvature="0"
         style="fill:#e74700;fill-opacity:1" /></g></g></svg>