<?xml version="1.0" encoding="UTF-8" standalone="no"?>
<!-- Generator: Adobe Illustrator 16.0.0, SVG Export Plug-In . SVG Version: 6.00 Build 0)  -->

<svg
   xmlns:dc="http://purl.org/dc/elements/1.1/"
   xmlns:cc="http://creativecommons.org/ns#"
   xmlns:rdf="http://www.w3.org/1999/02/22-rdf-syntax-ns#"
   xmlns:svg="http://www.w3.org/2000/svg"
   xmlns="http://www.w3.org/2000/svg"
   xmlns:sodipodi="http://sodipodi.sourceforge.net/DTD/sodipodi-0.dtd"
   xmlns:inkscape="http://www.inkscape.org/namespaces/inkscape"
   version="1.1"
   id="Layer_1"
   x="0px"
   y="0px"
   width="512px"
   height="512px"
   viewBox="0 0 512 512"
   enable-background="new 0 0 512 512"
   xml:space="preserve"
   inkscape:version="0.48.4 r9939"
   sodipodi:docname="surfaceCheck.svg"><metadata
     id="metadata9"><rdf:RDF><cc:Work
         rdf:about=""><dc:format>image/svg+xml</dc:format><dc:type
           rdf:resource="http://purl.org/dc/dcmitype/StillImage" /></cc:Work></rdf:RDF></metadata><defs
     id="defs7" /><sodipodi:namedview
     pagecolor="#ffffff"
     bordercolor="#666666"
     borderopacity="1"
     objecttolerance="10"
     gridtolerance="10"
     guidetolerance="10"
     inkscape:pageopacity="0"
     inkscape:pageshadow="2"
     inkscape:window-width="1360"
     inkscape:window-height="712"
     id="namedview5"
     showgrid="false"
     inkscape:zoom="0.921875"
     inkscape:cx="319.06739"
     inkscape:cy="243.01188"
     inkscape:window-x="-4"
     inkscape:window-y="-6"
     inkscape:window-maximized="1"
     inkscape:current-layer="g3" /><g
     transform="matrix(8.2657401,0,0,8.2657401,-0.21753519,-43.186534)"
     id="g3"><path
       inkscape:connector-curvature="0"
       d="m 37.296693,18.460412 c -0.04781,-0.05284 -0.08523,-0.09336 -0.101497,-0.107522 l -0.04194,0.04278 c -3.187363,-1.497769 -6.741037,-2.340021 -10.486507,-2.340021 -0.55099,0 -1.093911,0.02432 -1.634775,0.05956 l -0.002,-9.99e-4 v 9.99e-4 C 12.152714,16.962497 1.934104,27.701681 1.934104,40.789 c 0,13.638341 11.095362,24.733701 24.732689,24.733701 13.637318,0 24.732679,-11.09536 24.732679,-24.733701 0,-9.835022 -5.768898,-18.345799 -14.103097,-22.328716 z m 9.966944,31.867443 c -0.567261,0.478939 -2.266967,1.760599 -5.321389,2.980341 0.571288,-2.060973 1.054338,-4.4558 1.333397,-7.250446 2.788548,-0.825016 4.71862,-1.728132 5.905885,-2.389755 -0.298351,2.350181 -0.956921,4.588738 -1.917893,6.65986 z M 4.1841433,43.920675 c 1.3120824,0.647448 3.2665054,1.459221 5.9403867,2.205066 0.277045,2.728684 0.75699,5.089006 1.330351,7.124613 C 8.3111617,52.000172 6.5698377,50.70027 6.0462267,50.267981 5.1309079,48.287172 4.4946573,46.156188 4.1841433,43.920675 z M 5.7773067,32.020614 c 0.03188,-0.0302 1.740311,-1.62564 5.4756403,-3.129509 -0.561139,2.189841 -0.998525,4.775449 -1.224818,7.738537 C 7.2497207,37.434358 5.2790677,38.30805 4.0451175,38.951405 4.240971,36.499748 4.8244206,34.154652 5.7417937,31.98307 l 0.03523,0.03775 z M 49.283005,38.85399 c -1.232927,-0.666741 -3.165031,-1.539392 -5.901826,-2.331913 -0.210028,-2.890031 -0.626143,-5.403578 -1.1619,-7.548781 3.484677,1.409498 5.188451,2.857554 5.381258,3.029049 0.900087,2.138097 1.478505,4.442607 1.682468,6.851645 z M 26.556503,63.304572 c -0.309508,-0.437335 -1.424723,-2.166515 -2.518632,-5.460416 0.889945,0.04362 1.811344,0.06711 2.770288,0.06711 0.744829,0 1.449071,-0.02516 2.152297,-0.05284 -0.949807,2.941784 -1.929048,4.699338 -2.403953,5.446206 z m 0.251631,-7.421941 c -1.193356,0 -2.308578,-0.04948 -3.391323,-0.118761 -0.567262,-2.100547 -1.072597,-4.669907 -1.399349,-7.754776 1.478504,0.09032 3.022969,0.152243 4.685138,0.152243 1.482562,0 2.879882,-0.04278 4.207179,-0.114665 -0.313533,3.073705 -0.800609,5.651185 -1.353685,7.763909 -0.880803,0.0453 -1.795107,0.07213 -2.74796,0.07213 z m -0.10552,-9.750801 c -1.73422,0 -3.343621,-0.0671 -4.873879,-0.168427 C 21.710047,44.336747 21.638,42.596437 21.638,40.712035 c 0,-1.413556 0.04948,-2.732745 0.116668,-4.009306 1.640857,-0.118761 3.387256,-0.191741 5.269637,-0.191741 1.451101,0 2.796667,0.05201 4.092512,0.123793 0.08304,1.39326 0.141077,2.841317 0.141077,4.401004 0,1.773794 -0.0671,3.410599 -0.174542,4.955054 -1.380067,0.08304 -2.821025,0.141077 -4.380707,0.141077 z M 3.9781382,41.323913 c 0.7295654,-0.445473 2.6718515,-1.498802 5.9302375,-2.509497 -0.02349,0.656591 -0.04948,1.310053 -0.04948,2.002115 0,1.088836 0.03775,2.122874 0.09536,3.12545 -3.079794,-0.92343 -5.0362479,-1.897597 -5.9718471,-2.431358 -0.00198,-0.06291 -0.00415,-0.124804 -0.00415,-0.18671 z M 11.888171,40.81654 c 0,-0.890961 0.02349,-1.748429 0.06375,-2.578503 2.140125,-0.548977 4.72065,-1.034038 7.758834,-1.351657 -0.05956,1.222787 -0.101497,2.483119 -0.101497,3.82564 0,1.812353 0.06206,3.499895 0.168427,5.081901 -3.010773,-0.295246 -5.595357,-0.75397 -7.743602,-1.282648 -0.08522,-1.173066 -0.146111,-2.38874 -0.146111,-3.694733 z m 21.273374,-4.041783 c 3.289839,0.286189 6.044913,0.778296 8.290565,1.347606 0.03524,0.794569 0.05956,1.609401 0.05956,2.462809 0,1.371955 -0.06374,2.646486 -0.152244,3.874347 -2.221305,0.575398 -4.948976,1.078687 -8.219531,1.379051 0.09536,-1.500822 0.148131,-3.098056 0.148131,-4.802843 0,-1.504883 -0.05116,-2.90627 -0.126825,-4.26097 z m 10.334292,1.926014 c 3.1498,0.981271 5.01188,2.018354 5.789188,2.513556 -0.455621,0.320664 -2.306547,1.509958 -5.844999,2.642425 0.06206,-1.048247 0.101495,-2.128962 0.101495,-3.272594 0,-0.651475 -0.02516,-1.263376 -0.0453,-1.883387 z m -2.189849,-2.722595 c -2.295384,-0.541849 -5.040299,-1.001561 -8.280425,-1.263376 -0.267904,-3.180247 -0.719414,-5.898781 -1.250182,-8.203292 3.226934,0.32469 5.911985,0.928497 8.107915,1.621582 0.626145,2.150268 1.150737,4.74906 1.422692,7.845086 z M 31.249748,24.433274 c -0.804717,-2.881911 -1.690587,-4.935778 -2.356261,-6.237712 2.528772,0.247604 4.934765,0.915309 7.155051,1.926006 0.565251,0.697103 1.86106,2.51051 3.054416,5.652198 -2.209125,-0.598715 -4.819082,-1.083761 -7.853206,-1.340492 z m -4.736889,-6.344261 c 0.49521,0.831056 1.559688,2.856539 2.560234,6.199147 -0.808744,-0.03523 -1.634775,-0.06123 -2.497318,-0.06123 -0.989382,0 -1.938183,0.02516 -2.852479,0.07129 0.909221,-3.143718 1.89861,-5.181347 2.467885,-6.202192 0.10754,-9.99e-4 0.21414,-0.007 0.32167,-0.007 z m 0.06291,8.168792 c 1.068546,0 2.081272,0.03775 3.060513,0.09336 0.559127,2.263922 1.040127,5.008846 1.33238,8.231709 -1.248149,-0.06375 -2.557189,-0.101496 -3.942337,-0.101496 -1.829604,0 -3.526282,0.07045 -5.135683,0.178566 0.271929,-3.236059 0.740803,-5.992137 1.28671,-8.28346 1.083761,-0.06879 2.201013,-0.118779 3.398417,-0.118779 z m -6.744061,8.572671 c -2.977306,0.291221 -5.555799,0.736693 -7.72535,1.255256 0.291221,-3.174158 0.852392,-5.842971 1.514017,-8.040939 2.031546,-0.63017 4.501462,-1.173057 7.421932,-1.490676 -0.521547,2.336988 -0.963001,5.070738 -1.210599,8.276359 z m -7.595459,11.826996 c 2.181721,0.50125 4.745001,0.927488 7.708089,1.197413 0.297344,3.018909 0.765127,5.579135 1.301941,7.724337 -2.901195,-0.317644 -5.369088,-0.858484 -7.408748,-1.486623 -0.669759,-2.034585 -1.250181,-4.509582 -1.601282,-7.435127 z m 9.594529,11.024326 c 0.828035,2.704325 1.722041,4.555244 2.36032,5.673511 -2.251742,-0.245593 -4.406078,-0.818893 -6.409207,-1.674356 -0.400851,-0.456628 -1.73828,-2.126926 -3.046302,-5.201645 2.029516,0.527672 4.393906,0.955905 7.095189,1.20249 z m 9.321558,0.04697 c 2.890028,-0.230323 5.406622,-0.663632 7.537613,-1.216685 -1.26236,3.036153 -2.53892,4.657735 -2.869731,5.047403 -2.162447,0.956913 -4.497404,1.588089 -6.949058,1.82453 0.646441,-1.179145 1.495747,-3.027019 2.281173,-5.655244 z m 0.561139,-2.07648 c 0.525658,-2.158397 0.98127,-4.728771 1.264383,-7.749709 3.200543,-0.27193 5.909946,-0.736693 8.177934,-1.279606 -0.355136,2.975267 -0.937638,5.47563 -1.60332,7.525438 -2.133024,0.65248 -4.729786,1.208579 -7.838997,1.503877 z M 45.596366,28.274136 c -1.079702,-0.572294 -2.433388,-1.18016 -4.073236,-1.752487 -0.55099,-1.693624 -1.151752,-3.09907 -1.730161,-4.240672 2.284219,1.624633 4.253858,3.656173 5.803397,5.993159 z M 21.555751,24.459655 c -2.72564,0.250624 -5.097125,0.685947 -7.124614,1.222787 1.299904,-3.346676 2.679978,-5.170192 3.096026,-5.669455 1.964573,-0.866601 4.073237,-1.461248 6.279315,-1.740309 -0.667746,1.363835 -1.497777,3.406548 -2.250727,6.186977 z m -7.771013,-2.352203 c -0.594691,1.147691 -1.222779,2.58154 -1.803225,4.324894 -1.717983,0.591586 -3.1234203,1.227853 -4.2355993,1.826559 1.605351,-2.414101 3.6561743,-4.503492 6.0388243,-6.151453 z M 8.2685197,54.068249 c 1.078686,0.549983 2.4019243,1.122319 3.9819013,1.658109 0.56114,1.541421 1.155811,2.828132 1.720021,3.876378 C 11.76131,58.106979 9.8322577,56.228665 8.2685197,54.068249 z m 31.3133823,5.378215 c 0.523645,-1.003599 1.070567,-2.223333 1.591133,-3.684583 1.498802,-0.510394 2.772319,-1.057381 3.815491,-1.586069 -1.496764,2.042705 -3.324348,3.825631 -5.406624,5.270652 z"
       id="path3" /><path
       inkscape:connector-curvature="0"
       d="M 32.289532,31.533304 24.283067,19.065568 19.194014,22.332488 29.7784,38.818482 c 0.556544,0.867101 1.517141,1.388029 2.544526,1.388029 0.02985,0 0.06011,0 0.09014,-0.0011 1.06189,-0.03123 2.029164,-0.61665 2.547865,-1.543858 0.101306,-0.180345 10.357322,-18.238017 25.68793,-26.323513 L 57.828292,6.9885223 C 45.529739,13.473396 36.491435,25.256582 32.289514,31.533304 z"
       id="path7-2"
       style="fill:#00ff00" /></g></svg>