<?xml version="1.0" encoding="utf-8"?>
<!-- Generator: Adobe Illustrator 16.0.0, SVG Export Plug-In . SVG Version: 6.00 Build 0)  -->
<!DOCTYPE svg PUBLIC "-//W3C//DTD SVG 1.1//EN" "http://www.w3.org/Graphics/SVG/1.1/DTD/svg11.dtd">
<svg version="1.1" id="Layer_10" xmlns="http://www.w3.org/2000/svg" xmlns:xlink="http://www.w3.org/1999/xlink" x="0px" y="0px"
	 width="100px" height="100px" viewBox="0 0 100 100" enable-background="new 0 0 100 100" xml:space="preserve">
<g>
	<path d="M7.725,74.782c-6.911,3.523-2.967,8.452,0.596,11.555c2.291,1.995,5.766,1.756,7.761-0.535l40.904-51.677l-6.259-4.89
		C50.727,29.235,27.907,64.495,7.725,74.782z"/>
	<path d="M95.946,26.466C87.124,26.039,65.27,9.696,65.27,9.696L51.087,27.895L77.832,48.79
		C77.832,48.79,98.264,40.525,95.946,26.466z M77.192,45.674l-1.04-0.753c15.329-7.042,16.581-16.999,16.586-17.091l1.177,0.458
		C93.892,28.694,93.195,38.322,77.192,45.674z"/>
</g>
</svg>
