<?xml version="1.0" encoding="utf-8"?>
<!-- Generator: Adobe Illustrator 16.0.0, SVG Export Plug-In . SVG Version: 6.00 Build 0)  -->
<!DOCTYPE svg PUBLIC "-//W3C//DTD SVG 1.1//EN" "http://www.w3.org/Graphics/SVG/1.1/DTD/svg11.dtd">
<svg version="1.1" id="Layer_1" xmlns="http://www.w3.org/2000/svg" xmlns:xlink="http://www.w3.org/1999/xlink" x="0px" y="0px"
	 width="96px" height="96px" viewBox="0 0 96 96" enable-background="new 0 0 96 96" xml:space="preserve">
<g>
	<path d="M18.517,40.666c0-12.819,10.392-23.211,23.212-23.211h5.222V1.017H0.887v46.064h17.87c-0.142-1.036-0.24-2.086-0.24-3.16
		V40.666z"/>
	<path d="M69.291,43.339c2.097,0,4.134,0.256,6.086,0.728c0-0.049,0.007-0.097,0.007-0.146v-3.255
		c0-12.819-10.392-23.211-23.211-23.211H46.95v29.626H18.757c1.545,11.321,11.227,20.051,22.972,20.051h1.827
		C44.591,53.82,55.714,43.339,69.291,43.339z"/>
	<path d="M75.377,44.066c-0.079,12.752-10.434,23.065-23.204,23.065h-8.617c-0.052,0.67-0.087,1.346-0.087,2.029
		c0,14.261,11.562,25.822,25.822,25.822c14.263,0,25.822-11.562,25.822-25.822C95.113,56.995,86.701,46.803,75.377,44.066z"/>
</g>
</svg>
