<?xml version="1.0" encoding="UTF-8" standalone="no"?>
<!-- Created with Inkscape (http://www.inkscape.org/) -->

<svg
   xmlns:dc="http://purl.org/dc/elements/1.1/"
   xmlns:cc="http://creativecommons.org/ns#"
   xmlns:rdf="http://www.w3.org/1999/02/22-rdf-syntax-ns#"
   xmlns:svg="http://www.w3.org/2000/svg"
   xmlns="http://www.w3.org/2000/svg"
   version="1.1"
   width="167.427"
   height="191.979"
   viewBox="0 0 167.427 191.979"
   id="Ebene_1"
   xml:space="preserve"><metadata
     id="metadata23"><rdf:RDF><cc:Work
         rdf:about=""><dc:format>image/svg+xml</dc:format><dc:type
           rdf:resource="http://purl.org/dc/dcmitype/StillImage" /><dc:title></dc:title></cc:Work></rdf:RDF></metadata><defs
     id="defs21" /><g
     id="g3"
     style="fill:#747474;fill-opacity:1"><g
       id="g5"
       style="fill:#747474;fill-opacity:1"><polygon
         points="42.975,146.038 33.478,113.86 22.852,134.418 "
         id="polygon7"
         style="fill:#747474;fill-opacity:1" /><path
         d="M 0.256,56.143 0,146.184 78.359,191.423 78.614,101.383 0.256,56.143 z m 19.59,78.811 15.171,-29.534 13.612,46.151 -28.783,-16.617 z"
         id="path9"
         style="fill:#747474;fill-opacity:1" /></g><path
       d="m 89.186,101.03 -0.258,90.949 78.241,-45.469 0.258,-90.948 -78.241,45.468 z m 47.946,2.118 c -0.361,0.656 -0.806,1.135 -1.339,1.441 -0.48,0.278 -0.997,0.294 -1.559,0.053 -0.314,-0.132 -0.586,-0.13 -0.82,0.005 -0.23,0.133 -0.427,0.359 -0.581,0.678 -0.157,0.318 -0.235,0.75 -0.234,1.301 0.002,0.654 0.069,1.756 0.195,3.301 0.524,6.134 0.792,11.2 0.804,15.197 0.002,1.055 -0.095,5.723 -0.29,14.016 -0.097,4.689 -0.7,8.167 -1.816,10.447 -0.733,1.475 -1.646,2.527 -2.737,3.158 -0.707,0.408 -1.289,0.479 -1.739,0.204 -0.451,-0.274 -0.681,-0.825 -0.683,-1.653 -0.002,-0.708 0.17,-1.372 0.517,-1.998 0.346,-0.621 0.787,-1.089 1.32,-1.397 0.543,-0.313 1.016,-0.334 1.414,-0.06 0.396,0.273 0.731,0.33 1.003,0.172 0.23,-0.133 0.423,-0.352 0.573,-0.66 0.146,-0.307 0.221,-0.715 0.221,-1.236 -0.003,-0.654 -0.066,-1.561 -0.189,-2.716 -0.521,-4.642 -0.792,-11.01 -0.815,-19.099 0.221,-8.781 0.367,-13.561 0.432,-14.333 0.306,-3.097 0.848,-5.385 1.631,-6.866 0.782,-1.478 1.668,-2.506 2.666,-3.082 0.684,-0.395 1.28,-0.475 1.792,-0.243 0.512,0.229 0.77,0.655 0.771,1.284 0,0.736 -0.179,1.432 -0.537,2.086 z"
       id="path11"
       style="fill:#747474;fill-opacity:1" /><g
       id="g13"
       style="fill:#747474;fill-opacity:1"><path
         d="m 89.453,44.819 c -1.29,-0.745 -3.011,-1.225 -5.163,-1.431 -2.146,-0.21 -4.792,0.07 -7.926,0.833 -3.132,0.763 -5.787,1.773 -7.956,3.034 -1.662,0.966 -2.528,1.928 -2.618,2.897 -0.084,0.965 0.481,1.806 1.701,2.51 1.768,1.021 4.5,1.519 8.205,1.504 4.708,-0.021 9.756,-1.018 15.122,-2.975 1.03,-1.242 1.399,-2.426 1.094,-3.543 -0.299,-1.112 -1.118,-2.056 -2.459,-2.829 z"
         id="path15"
         style="fill:#747474;fill-opacity:1" /><path
         d="M 82.545,0 4.304,45.469 83.45,91.164 161.691,45.695 82.545,0 z m 16.304,48.604 c -5.037,2.928 -10.678,4.918 -16.901,5.976 -6.987,1.19 -12.394,0.686 -16.218,-1.522 -2.24,-1.294 -3.375,-2.69 -3.402,-4.198 -0.027,-1.508 1.059,-2.901 3.272,-4.188 1.472,-0.855 3.25,-1.571 5.347,-2.139 2.097,-0.568 4.145,-0.906 6.154,-1.017 2.004,-0.107 3.818,-0.06 5.436,0.14 1.618,0.2 3.096,0.501 4.428,0.903 1.32,0.401 2.475,0.885 3.451,1.448 1.194,0.689 2.045,1.438 2.559,2.241 0.5,0.804 0.74,1.581 0.713,2.33 -0.01,0.457 -0.205,1.028 -0.588,1.717 1.783,-0.836 3.192,-1.559 4.22,-2.156 2.568,-1.492 3.884,-3.041 3.938,-4.647 0.061,-1.604 -1.043,-3.063 -3.297,-4.364 -1.525,-0.881 -3.08,-1.442 -4.66,-1.692 -1.574,-0.247 -3.324,-0.273 -5.238,-0.078 l -0.989,-0.571 c 3.355,-0.67 6.192,-0.936 8.497,-0.788 2.299,0.144 4.352,0.74 6.164,1.787 1.29,0.745 2.205,1.678 2.732,2.791 0.529,1.12 0.39,2.348 -0.411,3.687 -0.795,1.34 -2.537,2.788 -5.207,4.34 z"
         id="path17"
         style="fill:#747474;fill-opacity:1" /></g></g></svg>