<?xml version="1.0" encoding="utf-8"?>
<!-- Generator: Adobe Illustrator 18.1.0, SVG Export Plug-In . SVG Version: 6.00 Build 0)  -->
<svg version="1.1" id="Capa_1" xmlns="http://www.w3.org/2000/svg" xmlns:xlink="http://www.w3.org/1999/xlink" x="0px" y="0px"
	 width="1000px" height="1000px" viewBox="0 0 1000 1000" enable-background="new 0 0 1000 1000" xml:space="preserve">
<path d="M107.6,610H390v282.4c0,16.6,13.4,30,30,30h160c16.6,0,30-13.4,30-30V610h282.4c16.6,0,30-13.4,30-30V420
	c0-16.6-13.4-30-30-30H610V107.6c0-16.6-13.4-30-30-30H420c-16.6,0-30,13.4-30,30V390H107.6c-16.6,0-30,13.4-30,30v160
	C77.6,596.6,91,610,107.6,610z"/>
</svg>
