<?xml version="1.0" encoding="UTF-8" standalone="no"?>
<!-- Generator: Adobe Illustrator 18.0.0, SVG Export Plug-In . SVG Version: 6.00 Build 0)  -->

<svg
   xmlns:dc="http://purl.org/dc/elements/1.1/"
   xmlns:cc="http://creativecommons.org/ns#"
   xmlns:rdf="http://www.w3.org/1999/02/22-rdf-syntax-ns#"
   xmlns:svg="http://www.w3.org/2000/svg"
   xmlns="http://www.w3.org/2000/svg"
   xmlns:sodipodi="http://sodipodi.sourceforge.net/DTD/sodipodi-0.dtd"
   xmlns:inkscape="http://www.inkscape.org/namespaces/inkscape"
   version="1.1"
   id="Capa_1"
   x="0px"
   y="0px"
   viewBox="0 0 76.089 75.441"
   style="enable-background:new 0 0 76.089 75.441;"
   xml:space="preserve"
   inkscape:version="0.48.4 r9939"
   width="100%"
   height="100%"
   sodipodi:docname="zoomOut.svg"><metadata
     id="metadata43"><rdf:RDF><cc:Work
         rdf:about=""><dc:format>image/svg+xml</dc:format><dc:type
           rdf:resource="http://purl.org/dc/dcmitype/StillImage" /></cc:Work></rdf:RDF></metadata><defs
     id="defs41" /><sodipodi:namedview
     pagecolor="#ffffff"
     bordercolor="#666666"
     borderopacity="1"
     objecttolerance="10"
     gridtolerance="10"
     guidetolerance="10"
     inkscape:pageopacity="0"
     inkscape:pageshadow="2"
     inkscape:window-width="1360"
     inkscape:window-height="712"
     id="namedview39"
     showgrid="false"
     inkscape:zoom="3.1282724"
     inkscape:cx="38.0445"
     inkscape:cy="37.7205"
     inkscape:window-x="-4"
     inkscape:window-y="-6"
     inkscape:window-maximized="1"
     inkscape:current-layer="Capa_1" /><g
     id="g3"
     style="fill:#102947;fill-opacity:1"><path
       d="M74.776,66.301L53.917,45.489c0.188-0.282,0.328-0.75,0.469-1.36c2.203-3.703,3.565-7.734,3.984-12   c0.097-0.984,0.141-2.015,0.141-3c0-3.234-0.54-6.476-1.641-9.656c-1.431-4.133-3.742-7.789-6.891-10.969   C38.738-2.847,19.81-2.822,8.59,8.504c-3.732,3.767-6.265,8.16-7.594,13.172c-1.343,5.067-1.312,10.031,0,15.047   s3.811,9.408,7.594,13.172c5.639,5.611,13.031,8.531,20.672,8.531c5.859,0,11.186-1.694,16.125-4.781l0.75-0.469l20.953,20.906   c0.822,0.82,1.639,1.359,2.438,1.359h0.422c0.609,0,1.133-0.126,1.547-0.375c0.524-0.314,1.135-0.786,1.828-1.453   c0.526-0.505,0.797-0.797,0.844-0.937c1.266-1.266,1.922-2.485,1.922-3.657C76.089,68.082,75.668,67.19,74.776,66.301z    M52.511,35.411c-1.1,4.119-3.188,7.734-6.281,10.828c-4.5,4.499-10.547,7.031-16.969,7.031c-6.562,0-12.177-2.403-17.015-7.031   c-9.177-8.779-9.155-25.137,0-33.984c4.814-4.653,10.406-7.078,17.015-7.078c6.703,0,12.295,2.376,16.969,7.078   c3.061,3.08,5.203,6.656,6.281,10.781C53.589,27.16,53.614,31.279,52.511,35.411z"
       id="path5"
       style="fill:#102947;fill-opacity:1" /><rect
       x="16.98"
       y="26.363"
       width="24.656"
       height="5.672"
       id="rect7"
       style="fill:#102947;fill-opacity:1" /></g><g
     id="g9" /><g
     id="g11" /><g
     id="g13" /><g
     id="g15" /><g
     id="g17" /><g
     id="g19" /><g
     id="g21" /><g
     id="g23" /><g
     id="g25" /><g
     id="g27" /><g
     id="g29" /><g
     id="g31" /><g
     id="g33" /><g
     id="g35" /><g
     id="g37" /></svg>