<?xml version="1.0" encoding="UTF-8" standalone="no"?>
<!-- Generator: Adobe Illustrator 18.0.0, SVG Export Plug-In . SVG Version: 6.00 Build 0)  -->

<svg
   xmlns:dc="http://purl.org/dc/elements/1.1/"
   xmlns:cc="http://creativecommons.org/ns#"
   xmlns:rdf="http://www.w3.org/1999/02/22-rdf-syntax-ns#"
   xmlns:svg="http://www.w3.org/2000/svg"
   xmlns="http://www.w3.org/2000/svg"
   xmlns:sodipodi="http://sodipodi.sourceforge.net/DTD/sodipodi-0.dtd"
   xmlns:inkscape="http://www.inkscape.org/namespaces/inkscape"
   version="1.1"
   id="Capa_1"
   x="0px"
   y="0px"
   viewBox="0 0 76.089 75.518"
   style="enable-background:new 0 0 76.089 75.518;"
   xml:space="preserve"
   inkscape:version="0.48.4 r9939"
   width="100%"
   height="100%"
   sodipodi:docname="zoomIn.svg"><metadata
     id="metadata43"><rdf:RDF><cc:Work
         rdf:about=""><dc:format>image/svg+xml</dc:format><dc:type
           rdf:resource="http://purl.org/dc/dcmitype/StillImage" /></cc:Work></rdf:RDF></metadata><defs
     id="defs41" /><sodipodi:namedview
     pagecolor="#ffffff"
     bordercolor="#666666"
     borderopacity="1"
     objecttolerance="10"
     gridtolerance="10"
     guidetolerance="10"
     inkscape:pageopacity="0"
     inkscape:pageshadow="2"
     inkscape:window-width="1360"
     inkscape:window-height="712"
     id="namedview39"
     showgrid="false"
     inkscape:zoom="3.1250828"
     inkscape:cx="38.0445"
     inkscape:cy="37.759"
     inkscape:window-x="-4"
     inkscape:window-y="-6"
     inkscape:window-maximized="1"
     inkscape:current-layer="Capa_1" /><g
     id="g3"
     style="fill:#102947;fill-opacity:1"><path
       d="M74.777,66.328l-20.86-20.812c0.188-0.282,0.329-0.75,0.469-1.36c2.203-3.703,3.566-7.734,3.985-12   c0.096-0.984,0.14-2.015,0.14-3c0-3.234-0.54-6.476-1.64-9.656c-1.431-4.133-3.718-7.813-6.891-10.968   C44.34,2.921,36.902,0,29.262,0C21.715,0,14.243,2.935,8.59,8.532c-3.769,3.731-6.265,8.16-7.594,13.171   c-1.343,5.067-1.312,10.031,0,15.047c1.313,5.016,3.811,9.408,7.594,13.172c5.639,5.611,13.125,8.531,20.672,8.531   c5.859,0,11.185-1.694,16.124-4.781l0.75-0.469l20.953,20.906c0.798,0.796,1.641,1.265,2.438,1.359   c0.187,0.047,0.328,0.056,0.468,0.047c0.564-0.037,1.081-0.182,1.5-0.422c0.566-0.323,1.172-0.797,1.828-1.453l0.938-0.937   c0.656-0.657,1.13-1.263,1.453-1.828c0.239-0.419,0.375-0.985,0.375-1.688v-0.375C76.089,68.014,75.598,67.147,74.777,66.328z    M52.511,35.438c-1.1,4.119-3.187,7.734-6.281,10.828c-4.5,4.499-10.547,7.031-16.968,7.031c-6.329,0-12.336-2.573-17.016-7.031   c-9.195-8.761-9.157-25.139,0-33.984c4.625-4.468,10.641-7.078,17.016-7.078c6.703,0,12.295,2.376,16.968,7.078   c3.061,3.079,5.203,6.656,6.281,10.781S53.614,31.307,52.511,35.438z"
       id="path5"
       style="fill:#102947;fill-opacity:1" /><polygon
       points="32.121,16.922 26.449,16.922 26.449,26.391 16.98,26.391 16.98,32.063 26.449,32.063 26.449,41.578 32.121,41.578    32.121,32.063 41.636,32.063 41.636,26.391 32.121,26.391  "
       id="polygon7"
       style="fill:#102947;fill-opacity:1" /></g><g
     id="g9" /><g
     id="g11" /><g
     id="g13" /><g
     id="g15" /><g
     id="g17" /><g
     id="g19" /><g
     id="g21" /><g
     id="g23" /><g
     id="g25" /><g
     id="g27" /><g
     id="g29" /><g
     id="g31" /><g
     id="g33" /><g
     id="g35" /><g
     id="g37" /></svg>