<?xml version="1.0" encoding="UTF-8" standalone="no"?>
<svg
   xmlns:dc="http://purl.org/dc/elements/1.1/"
   xmlns:cc="http://creativecommons.org/ns#"
   xmlns:rdf="http://www.w3.org/1999/02/22-rdf-syntax-ns#"
   xmlns:svg="http://www.w3.org/2000/svg"
   xmlns="http://www.w3.org/2000/svg"
   xmlns:sodipodi="http://sodipodi.sourceforge.net/DTD/sodipodi-0.dtd"
   xmlns:inkscape="http://www.inkscape.org/namespaces/inkscape"
   viewBox="0 0 24 24"
   style="pointer-events: none; display: block;"
   id="svg2"
   version="1.1"
   inkscape:version="0.48.4 r9939"
   width="100%"
   height="100%"
   sodipodi:docname="replayHistory.svg">
  <metadata
     id="metadata11">
    <rdf:RDF>
      <cc:Work
         rdf:about="">
        <dc:format>image/svg+xml</dc:format>
        <dc:type
           rdf:resource="http://purl.org/dc/dcmitype/StillImage" />
      </cc:Work>
    </rdf:RDF>
  </metadata>
  <defs
     id="defs9" />
  <sodipodi:namedview
     pagecolor="#ffffff"
     bordercolor="#666666"
     borderopacity="1"
     objecttolerance="10"
     gridtolerance="10"
     guidetolerance="10"
     inkscape:pageopacity="0"
     inkscape:pageshadow="2"
     inkscape:window-width="1360"
     inkscape:window-height="712"
     id="namedview7"
     showgrid="false"
     inkscape:zoom="9.8333333"
     inkscape:cx="12"
     inkscape:cy="12"
     inkscape:window-x="-4"
     inkscape:window-y="-6"
     inkscape:window-maximized="1"
     inkscape:current-layer="svg2" />
  <g
     id="history"
     transform="matrix(1.1498662,0,0,1.1498662,-1.7983943,-1.7234612)">
    <path
       d="M 12.5,2 C 9,2 5.9,3.9 4.3,6.8 L 2,4.5 V 11 H 8.5 L 5.7,8.2 C 7,5.7 9.5,4 12.5,4 16.6,4 20,7.4 20,11.5 20,15.6 16.6,19 12.5,19 9.2,19 6.5,16.9 5.4,14 H 3.3 c 1.1,4 4.8,7 9.2,7 C 17.8,21 22,16.7 22,11.5 22,6.3 17.7,2 12.5,2 z M 11,7 v 5.1 l 4.7,2.8 0.8,-1.3 -4,-2.4 V 7 H 11 z"
       id="path5"
       inkscape:connector-curvature="0"
       style="opacity:0.9" />
  </g>
</svg>
