<?xml version="1.0" encoding="UTF-8" standalone="no"?>
<!-- Generator: Adobe Illustrator 16.0.4, SVG Export Plug-In . SVG Version: 6.00 Build 0)  -->

<svg
   xmlns:dc="http://purl.org/dc/elements/1.1/"
   xmlns:cc="http://creativecommons.org/ns#"
   xmlns:rdf="http://www.w3.org/1999/02/22-rdf-syntax-ns#"
   xmlns:svg="http://www.w3.org/2000/svg"
   xmlns="http://www.w3.org/2000/svg"
   xmlns:sodipodi="http://sodipodi.sourceforge.net/DTD/sodipodi-0.dtd"
   xmlns:inkscape="http://www.inkscape.org/namespaces/inkscape"
   version="1.1"
   id="Capa_1"
   x="0px"
   y="0px"
   width="21.848px"
   height="22.5px"
   viewBox="0 0 21.848 22.5"
   enable-background="new 0 0 21.848 22.5"
   xml:space="preserve"
   inkscape:version="0.48.4 r9939"
   sodipodi:docname="replayHistory.svg"><metadata
     id="metadata11"><rdf:RDF><cc:Work
         rdf:about=""><dc:format>image/svg+xml</dc:format><dc:type
           rdf:resource="http://purl.org/dc/dcmitype/StillImage" /></cc:Work></rdf:RDF></metadata><defs
     id="defs9" /><sodipodi:namedview
     pagecolor="#ffffff"
     bordercolor="#666666"
     borderopacity="1"
     objecttolerance="10"
     gridtolerance="10"
     guidetolerance="10"
     inkscape:pageopacity="0"
     inkscape:pageshadow="2"
     inkscape:window-width="640"
     inkscape:window-height="480"
     id="namedview7"
     showgrid="false"
     inkscape:zoom="10.488889"
     inkscape:cx="10.924"
     inkscape:cy="11.25"
     inkscape:window-x="0"
     inkscape:window-y="0"
     inkscape:window-maximized="0"
     inkscape:current-layer="Capa_1" /><g
     id="g3"
     style="fill:#ffffff"><path
       d="M21.847,1.96V0H0v1.96h1.794v18.582H0V22.5h21.848v-1.959h-1.796V1.96H21.847z M3.803,1.96h1.56   C5.327,2.367,5.299,2.796,5.299,3.244c0,1.227,0.179,2.527,0.771,3.449l1.974,2.462c0.545,0.602,1.062,1.172,1.203,1.543   c0,0,0.152,0.627,0.199,0.816c-0.031,0.131-0.199,0.814-0.199,0.814c-0.143,0.371-0.658,0.939-1.203,1.543l-1.974,2.465   c-0.592,0.92-0.771,2.219-0.771,3.445c0,0.258,0.01,0.512,0.023,0.76H3.803V1.96z M18.043,20.542h-1.52   c0.013-0.247,0.022-0.5,0.022-0.758c0-1.229-0.178-2.527-0.768-3.447L13.8,13.868c-0.545-0.602-1.059-1.168-1.201-1.539   c0,0-0.166-0.687-0.198-0.814c0.032-0.13,0.198-0.816,0.198-0.816c0.143-0.371,0.656-0.938,1.201-1.543l1.979-2.462   c0.59-0.922,0.768-2.223,0.768-3.45c0-0.448-0.027-0.877-0.062-1.283h1.56V20.542z"
       id="path5"
       style="fill:#ffffff" /></g></svg>