<?xml version="1.0" encoding="UTF-8" standalone="no"?>
<!-- Generator: Adobe Illustrator 16.0.0, SVG Export Plug-In . SVG Version: 6.00 Build 0)  -->

<svg
   xmlns:dc="http://purl.org/dc/elements/1.1/"
   xmlns:cc="http://creativecommons.org/ns#"
   xmlns:rdf="http://www.w3.org/1999/02/22-rdf-syntax-ns#"
   xmlns:svg="http://www.w3.org/2000/svg"
   xmlns="http://www.w3.org/2000/svg"
   xmlns:sodipodi="http://sodipodi.sourceforge.net/DTD/sodipodi-0.dtd"
   xmlns:inkscape="http://www.inkscape.org/namespaces/inkscape"
   version="1.1"
   id="Layer_1"
   x="0px"
   y="0px"
   width="512px"
   height="512px"
   viewBox="0 0 512 512"
   enable-background="new 0 0 512 512"
   xml:space="preserve"
   inkscape:version="0.48.5 r10040"
   sodipodi:docname="reload.svg"><metadata
     id="metadata9"><rdf:RDF><cc:Work
         rdf:about=""><dc:format>image/svg+xml</dc:format><dc:type
           rdf:resource="http://purl.org/dc/dcmitype/StillImage" /></cc:Work></rdf:RDF></metadata><defs
     id="defs7" /><sodipodi:namedview
     pagecolor="#ffffff"
     bordercolor="#666666"
     borderopacity="1"
     objecttolerance="10"
     gridtolerance="10"
     guidetolerance="10"
     inkscape:pageopacity="0"
     inkscape:pageshadow="2"
     inkscape:window-width="712"
     inkscape:window-height="480"
     id="namedview5"
     showgrid="false"
     inkscape:zoom="0.4609375"
     inkscape:cx="256"
     inkscape:cy="256"
     inkscape:window-x="0"
     inkscape:window-y="0"
     inkscape:window-maximized="0"
     inkscape:current-layer="Layer_1" /><path
     d="M416.61,325.104c-2.132-6.566-9.183-10.155-15.75-8.026l-16.254,5.281c9.958-20.592,15.173-43.236,15.173-66.359  c0-84.089-68.411-152.5-152.5-152.5s-152.5,68.411-152.5,152.5s68.411,152.5,152.5,152.5c6.903,0,12.5-5.597,12.5-12.5  s-5.597-12.5-12.5-12.5c-70.304,0-127.5-57.196-127.5-127.5s57.196-127.5,127.5-127.5s127.5,57.196,127.5,127.5  c0,19.372-4.371,38.337-12.722,55.568l-5.554-17.095c-2.133-6.565-9.185-10.156-15.75-8.026c-6.566,2.134-10.159,9.186-8.026,15.751  l14.739,45.369c1.716,5.283,6.616,8.641,11.886,8.641c1.279,0,2.582-0.198,3.865-0.614l45.368-14.738  C415.149,338.723,418.743,331.671,416.61,325.104z"
     id="path3"
     style="fill:#102947;fill-opacity:1" /></svg>