<?xml version="1.0" encoding="UTF-8" standalone="no"?>
<!-- Generator: Adobe Illustrator 15.0.0, SVG Export Plug-In . SVG Version: 6.00 Build 0)  -->

<svg
   xmlns:dc="http://purl.org/dc/elements/1.1/"
   xmlns:cc="http://creativecommons.org/ns#"
   xmlns:rdf="http://www.w3.org/1999/02/22-rdf-syntax-ns#"
   xmlns:svg="http://www.w3.org/2000/svg"
   xmlns="http://www.w3.org/2000/svg"
   xmlns:sodipodi="http://sodipodi.sourceforge.net/DTD/sodipodi-0.dtd"
   xmlns:inkscape="http://www.inkscape.org/namespaces/inkscape"
   version="1.1"
   id="Layer_1"
   x="0px"
   y="0px"
   width="64px"
   height="64px"
   viewBox="0 0 64 64"
   enable-background="new 0 0 64 64"
   xml:space="preserve"
   inkscape:version="0.48.4 r9939"
   sodipodi:docname="deleteConnector.svg"><metadata
     id="metadata25"><rdf:RDF><cc:Work
         rdf:about=""><dc:format>image/svg+xml</dc:format><dc:type
           rdf:resource="http://purl.org/dc/dcmitype/StillImage" /></cc:Work></rdf:RDF></metadata><defs
     id="defs23" /><sodipodi:namedview
     pagecolor="#ffffff"
     bordercolor="#666666"
     borderopacity="1"
     objecttolerance="10"
     gridtolerance="10"
     guidetolerance="10"
     inkscape:pageopacity="0"
     inkscape:pageshadow="2"
     inkscape:window-width="1360"
     inkscape:window-height="712"
     id="namedview21"
     showgrid="false"
     inkscape:zoom="3.6875"
     inkscape:cx="32"
     inkscape:cy="32"
     inkscape:window-x="-4"
     inkscape:window-y="-6"
     inkscape:window-maximized="1"
     inkscape:current-layer="Layer_1" /><g
     id="g3"
     style="fill:#102947;fill-opacity:1"><g
       id="g5"
       style="fill:#102947;fill-opacity:1"><path
         d="M59.813,12.458c-1.762-3.144-5.104-5.096-8.721-5.096c-1.702,0-3.388,0.441-4.872,1.275L27.452,19.172l2.159,3.848    l18.769-10.535c0.83-0.465,1.768-0.711,2.715-0.711c2.021,0,3.887,1.089,4.871,2.843c0.727,1.296,0.905,2.799,0.501,4.233    c-0.402,1.434-1.338,2.626-2.634,3.353L36.82,31.75c-0.324-2.073-1.291-3.985-2.804-5.499c-2.668-2.665-6.897-3.608-10.449-2.333    l-1.536,0.553l1.492,4.15l1.542-0.55c1.984-0.722,4.345-0.184,5.832,1.3c0.858,0.859,1.401,1.947,1.573,3.126    c-0.072-0.017-0.144-0.035-0.213-0.055c-1.437-0.404-2.627-1.341-3.355-2.642L28.1,28.383l-3.851,2.164l0.807,1.417    c1.304,2.327,3.436,4.007,6.008,4.729c0.089,0.023,0.179,0.048,0.269,0.069c-0.136,0.172-0.281,0.336-0.435,0.49L16.834,51.317    c-1.052,1.051-2.452,1.629-3.941,1.629c-1.49,0-2.89-0.578-3.94-1.629s-1.628-2.449-1.628-3.94c0-1.49,0.578-2.889,1.628-3.939    l12.215-12.214l-3.121-3.121L5.833,40.317c-1.886,1.888-2.925,4.395-2.925,7.06c0,2.667,1.039,5.173,2.925,7.061    c1.887,1.887,4.393,2.924,7.06,2.924s5.173-1.037,7.06-2.924L34.02,40.374c1.03-1.034,1.822-2.284,2.318-3.655    c0.815-0.217,1.59-0.529,2.31-0.935l17.345-9.733c2.322-1.305,4-3.438,4.721-6.007C61.436,17.474,61.116,14.779,59.813,12.458z"
         id="path7"
         style="fill:#102947;fill-opacity:1" /></g><g
       id="g9"
       style="fill:#102947;fill-opacity:1"><g
         id="g11"
         style="fill:#102947;fill-opacity:1"><path
           d="M24.212,20.349c0.554-0.101,0.924-0.633,0.823-1.188L22.931,7.481c-0.101-0.556-0.635-0.926-1.189-0.827     c-0.555,0.101-0.926,0.633-0.825,1.19l2.105,11.678C23.122,20.079,23.655,20.448,24.212,20.349z"
           id="path13"
           style="fill:#102947;fill-opacity:1" /></g></g><g
       id="g15"
       style="fill:#102947;fill-opacity:1"><g
         id="g17"
         style="fill:#102947;fill-opacity:1"><path
           d="M8.267,26.501l11.679-2.106c0.556-0.101,0.926-0.633,0.825-1.188c-0.101-0.557-0.633-0.928-1.187-0.827L7.904,24.487     C7.35,24.585,6.979,25.12,7.08,25.675C7.179,26.231,7.713,26.601,8.267,26.501z"
           id="path19"
           style="fill:#102947;fill-opacity:1" /></g></g></g></svg>