<?xml version="1.0" encoding="UTF-8" standalone="no"?>
<!-- Generator: Adobe Illustrator 16.0.4, SVG Export Plug-In . SVG Version: 6.00 Build 0)  -->

<svg
   xmlns:dc="http://purl.org/dc/elements/1.1/"
   xmlns:cc="http://creativecommons.org/ns#"
   xmlns:rdf="http://www.w3.org/1999/02/22-rdf-syntax-ns#"
   xmlns:svg="http://www.w3.org/2000/svg"
   xmlns="http://www.w3.org/2000/svg"
   xmlns:sodipodi="http://sodipodi.sourceforge.net/DTD/sodipodi-0.dtd"
   xmlns:inkscape="http://www.inkscape.org/namespaces/inkscape"
   version="1.1"
   id="Capa_1"
   x="0px"
   y="0px"
   width="512px"
   height="512px"
   viewBox="0 0 512 512"
   enable-background="new 0 0 512 512"
   xml:space="preserve"
   inkscape:version="0.48.4 r9939"
   sodipodi:docname="deleteStreamItemFromWorkSpace.svg"><metadata
     id="metadata9"><rdf:RDF><cc:Work
         rdf:about=""><dc:format>image/svg+xml</dc:format><dc:type
           rdf:resource="http://purl.org/dc/dcmitype/StillImage" /><dc:title /></cc:Work></rdf:RDF></metadata><defs
     id="defs7" /><sodipodi:namedview
     pagecolor="#ffffff"
     bordercolor="#666666"
     borderopacity="1"
     objecttolerance="10"
     gridtolerance="10"
     guidetolerance="10"
     inkscape:pageopacity="0"
     inkscape:pageshadow="2"
     inkscape:window-width="1366"
     inkscape:window-height="689"
     id="namedview5"
     showgrid="false"
     inkscape:zoom="0.4609375"
     inkscape:cx="126.96607"
     inkscape:cy="190.14089"
     inkscape:window-x="-4"
     inkscape:window-y="-6"
     inkscape:window-maximized="1"
     inkscape:current-layer="g3790" /><g
     id="g2989"
     transform="matrix(1.2456153,0,0,1.2456153,-68.551163,5.1511741)"><g
       id="g3010"
       transform="matrix(2.6191568,0,0,2.6191568,141.14709,68.712805)"><path
         id="path3002"
         d="m 107.74182,26.336938 -4.27912,-3.293802 -4.279114,-3.293801 c -1.34713,-1.036938 -1.584336,-2.860049 -0.5474,-4.207179 l 6.648594,-8.6374832 c 2.07388,-2.694261 1.56297,-6.620961 -1.13129,-8.694836 L 74.675114,-24.4808 c -2.69426,-2.073875 -6.620961,-1.56297 -8.694837,1.131291 l -6.587604,8.558241 c -1.036938,1.347129 -2.860048,1.584336 -4.207178,0.547398 l -4.279121,-3.293802 -4.279119,-3.293802 c -2.694261,-2.073875 -6.620962,-1.56297 -8.694837,1.131291 l -1.280923,1.664102 c -2.073876,2.694261 -1.581216,6.480722 0.972805,8.572844 0.07925,0.061 0.07925,0.061 0.158485,0.121995 L 98.87911,37.686933 c 0.07924,0.06099 0.07924,0.06099 0.158484,0.121995 2.676006,1.933635 6.462466,1.440975 8.536346,-1.253283 l 1.28092,-1.664103 c 2.15312,-2.633264 1.58122,-6.48072 -1.11304,-8.554599 z m -19.036552,-14.779359 0,0 -22.901217,-17.6279402 v 0 l 4.025759,-5.2300358 c 1.036937,-1.34713 3.000288,-1.602583 4.347418,-0.565645 L 92.165381,1.9801258 c 1.34713,1.036937 1.602583,3.000288 0.565645,4.347418 l -4.025758,5.2300352 z"
         inkscape:connector-curvature="0" /><g
         id="g3790"
         transform="matrix(0.62641633,0.37440452,-0.37440452,0.62641633,105.99476,27.470339)"><rect
           ry="9.7675953"
           y="16.541553"
           x="-174.37334"
           height="63.949398"
           width="135.42224"
           id="rect3014"
           style="fill:#ffffff;fill-opacity:1;fill-rule:nonzero;stroke:#000000;stroke-width:3.36011152;stroke-linecap:square;stroke-linejoin:miter;stroke-miterlimit:4;stroke-opacity:1;stroke-dasharray:none;stroke-dashoffset:0" /><rect
           ry="2.8669529"
           y="25.23868"
           x="-165.69983"
           height="6.0494304"
           width="89.172684"
           id="rect3784"
           style="fill:#000000;fill-opacity:1;fill-rule:nonzero;stroke:#000000;stroke-width:1.1874882;stroke-linecap:square;stroke-linejoin:miter;stroke-miterlimit:4;stroke-opacity:1;stroke-dasharray:none;stroke-dashoffset:0" /><rect
           style="fill:#000000;fill-opacity:1;fill-rule:nonzero;stroke:#000000;stroke-width:0.91955101;stroke-linecap:square;stroke-linejoin:miter;stroke-miterlimit:4;stroke-opacity:1;stroke-dasharray:none;stroke-dashoffset:0"
           id="rect3786"
           width="51.203922"
           height="6.3173676"
           x="-165.8338"
           y="42.882679"
           ry="2.9939339" /><rect
           ry="2.9939339"
           y="53.917278"
           x="-165.8338"
           height="6.3173676"
           width="51.203922"
           id="rect3788"
           style="fill:#000000;fill-opacity:1;fill-rule:nonzero;stroke:#000000;stroke-width:0.91955101;stroke-linecap:square;stroke-linejoin:miter;stroke-miterlimit:4;stroke-opacity:1;stroke-dasharray:none;stroke-dashoffset:0" /></g><path
         id="path3000"
         d="m 26.626068,48.252136 c -0.1,0 -0.1,0 -0.2,0 v 73.199984 c 0,3.3 2.7,6 6,6 h 65.5 c 3.299992,0 5.999992,-2.7 5.999992,-6 0,0 -0.1,-73.199984 -0.2,-73.199984 H 26.626068 z m 21.2,58.499984 c 0,2.8 -2.2,5 -5,5 -2.8,0 -5,-2.2 -5,-5 V 68.152136 c 0,-2.8 2.2,-5 5,-5 2.8,0 5,2.2 5,5 v 38.599984 z m 22.4,0 c 0,2.8 -2.2,5 -5,5 -2.8,0 -5,-2.2 -5,-5 V 68.152136 c 0,-2.8 2.2,-5 5,-5 2.8,0 5,2.2 5,5 v 38.599984 z m 22.4,0 c 0,2.8 -2.2,5 -5,5 -2.8,0 -5,-2.2 -5,-5 V 68.152136 c 0,-2.8 2.2,-5 5,-5 2.8,0 5,2.2 5,5 v 38.599984 z"
         inkscape:connector-curvature="0" /></g></g></svg>