<?xml version="1.0" encoding="UTF-8" standalone="no"?>
<!-- Generator: Adobe Illustrator 16.0.4, SVG Export Plug-In . SVG Version: 6.00 Build 0)  -->

<svg
   xmlns:dc="http://purl.org/dc/elements/1.1/"
   xmlns:cc="http://creativecommons.org/ns#"
   xmlns:rdf="http://www.w3.org/1999/02/22-rdf-syntax-ns#"
   xmlns:svg="http://www.w3.org/2000/svg"
   xmlns="http://www.w3.org/2000/svg"
   xmlns:sodipodi="http://sodipodi.sourceforge.net/DTD/sodipodi-0.dtd"
   xmlns:inkscape="http://www.inkscape.org/namespaces/inkscape"
   version="1.1"
   id="Capa_1"
   x="0px"
   y="0px"
   width="512px"
   height="512px"
   viewBox="0 0 512 512"
   enable-background="new 0 0 512 512"
   xml:space="preserve"
   inkscape:version="0.48.4 r9939"
   sodipodi:docname="renameStreamItem.svg"><metadata
     id="metadata9"><rdf:RDF><cc:Work
         rdf:about=""><dc:format>image/svg+xml</dc:format><dc:type
           rdf:resource="http://purl.org/dc/dcmitype/StillImage" /><dc:title></dc:title></cc:Work></rdf:RDF></metadata><defs
     id="defs7" /><sodipodi:namedview
     pagecolor="#ffffff"
     bordercolor="#666666"
     borderopacity="1"
     objecttolerance="10"
     gridtolerance="10"
     guidetolerance="10"
     inkscape:pageopacity="0"
     inkscape:pageshadow="2"
     inkscape:window-width="1366"
     inkscape:window-height="689"
     id="namedview5"
     showgrid="false"
     inkscape:zoom="0.65186406"
     inkscape:cx="274.64911"
     inkscape:cy="242.03454"
     inkscape:window-x="-4"
     inkscape:window-y="-6"
     inkscape:window-maximized="1"
     inkscape:current-layer="g3010" /><g
     id="g2989"
     transform="matrix(1.2456153,0,0,1.2456153,-68.551163,5.1511741)"><g
       id="g3010"
       transform="matrix(2.6191568,0,0,2.6191568,141.14709,68.712805)"><g
         id="g3790"
         transform="matrix(1.0876017,0.00122442,-0.00122442,1.0876017,163.1294,-37.776411)"><rect
           ry="9.7675953"
           y="19.190844"
           x="-175.29312"
           height="63.949398"
           width="135.42224"
           id="rect3014"
           style="fill:#ffffff;fill-opacity:1;fill-rule:nonzero;stroke:#000000;stroke-width:3.36011147;stroke-linecap:square;stroke-linejoin:miter;stroke-miterlimit:4;stroke-opacity:1;stroke-dasharray:none;stroke-dashoffset:0" /></g><g
         id="g3837"
         transform="matrix(1.1418099,0,0,1.1418099,-6.7147055,37.610869)"><polygon
           transform="matrix(5.3247177,0,0,5.3247177,-19.833424,-21.560301)"
           id="polygon3818"
           points="16.137,10.152 16.137,10.911 19.117,10.911 19.117,15.09 16.137,15.09 16.137,15.848 19.875,15.848 19.875,10.152 " /><polygon
           transform="matrix(5.3247177,0,0,5.3247177,-19.833424,-21.560301)"
           id="polygon3820"
           points="13.221,15.09 5.848,15.09 5.848,10.911 13.221,10.911 13.221,10.152 5.09,10.152 5.09,15.848 13.221,15.848 " /><path
           id="path3822"
           d="m 61.251377,71.270827 c -0.165066,-0.170391 -0.28221,-0.36208 -0.378055,-0.612342 V 25.48358 l -0.01065,-0.308834 c 0.07987,-0.394029 0.239612,-0.718837 0.500523,-0.990397 0.772084,-0.804033 2.273655,-0.974424 3.39717,-0.974424 h 2.103264 v -5.255496 h -2.103264 c -2.694307,0 -4.866792,0.649616 -6.469532,1.927548 -1.613389,-1.368453 -3.839121,-2.060666 -6.618624,-2.060666 h -2.103263 v 5.260821 h 2.103263 c 1.118191,0 2.619761,0.165066 3.391845,0.974424 0.170391,0.170391 0.298184,0.378054 0.38338,0.617667 v 45.276074 c 0,0.02662 -0.0053,0.761435 -0.548446,1.32053 C 54.12158,72.080184 52.62001,72.2559 51.496494,72.2559 h -2.103263 v 5.250172 h 2.103263 c 2.758204,0 4.967962,-0.681564 6.576027,-2.018068 1.613389,1.347153 3.817822,2.018068 6.570701,2.018068 h 2.108589 V 72.2559 h -2.108589 c -1.123515,-0.0053 -2.619761,-0.175716 -3.391845,-0.985073 z"
           inkscape:connector-curvature="0" /></g><text
         xml:space="preserve"
         style="font-size:31.34687996px;font-style:normal;font-variant:normal;font-weight:normal;font-stretch:normal;line-height:125%;letter-spacing:0px;word-spacing:0px;fill:#000000;fill-opacity:1;stroke:none;font-family:Roboto;-inkscape-font-specification:Roboto"
         x="-17.940573"
         y="15.807505"
         id="text3842"
         sodipodi:linespacing="125%"><tspan
           sodipodi:role="line"
           id="tspan3844"
           x="-17.940573"
           y="15.807505">ABC</tspan></text>
</g></g></svg>