<?xml version="1.0" encoding="UTF-8" standalone="no"?>
<!-- Generator: Adobe Illustrator 16.0.0, SVG Export Plug-In . SVG Version: 6.00 Build 0)  -->

<svg
   xmlns:dc="http://purl.org/dc/elements/1.1/"
   xmlns:cc="http://creativecommons.org/ns#"
   xmlns:rdf="http://www.w3.org/1999/02/22-rdf-syntax-ns#"
   xmlns:svg="http://www.w3.org/2000/svg"
   xmlns="http://www.w3.org/2000/svg"
   xmlns:sodipodi="http://sodipodi.sourceforge.net/DTD/sodipodi-0.dtd"
   xmlns:inkscape="http://www.inkscape.org/namespaces/inkscape"
   version="1.1"
   id="Layer_6"
   x="0px"
   y="0px"
   width="100px"
   height="100px"
   viewBox="0 0 100 100"
   enable-background="new 0 0 100 100"
   xml:space="preserve"
   inkscape:version="0.48.4 r9939"
   sodipodi:docname="startCreatingConnection.svg"><metadata
     id="metadata9"><rdf:RDF><cc:Work
         rdf:about=""><dc:format>image/svg+xml</dc:format><dc:type
           rdf:resource="http://purl.org/dc/dcmitype/StillImage" /></cc:Work></rdf:RDF></metadata><defs
     id="defs7" /><sodipodi:namedview
     pagecolor="#ffffff"
     bordercolor="#666666"
     borderopacity="1"
     objecttolerance="10"
     gridtolerance="10"
     guidetolerance="10"
     inkscape:pageopacity="0"
     inkscape:pageshadow="2"
     inkscape:window-width="1360"
     inkscape:window-height="712"
     id="namedview5"
     showgrid="false"
     inkscape:zoom="2.36"
     inkscape:cx="50"
     inkscape:cy="50"
     inkscape:window-x="-4"
     inkscape:window-y="-6"
     inkscape:window-maximized="1"
     inkscape:current-layer="Layer_6" /><path
     d="M87.936,12.063c-5.611-5.612-14.743-5.612-20.355,0L52.207,27.438c-4.398,4.397-5.35,10.958-2.853,16.291l-5.626,5.626  c-5.333-2.497-11.893-1.546-16.291,2.853L12.063,67.581c-5.612,5.611-5.612,14.743,0,20.355c5.612,5.613,14.744,5.612,20.356,0.001  l15.373-15.374c4.589-4.589,5.424-11.527,2.512-16.973l5.285-5.286c5.446,2.912,12.386,2.077,16.973-2.511L87.937,32.42  C93.549,26.809,93.549,17.676,87.936,12.063z M43.096,67.865L27.722,83.24c-3.021,3.021-7.938,3.021-10.96-0.001  c-3.022-3.022-3.022-7.939-0.002-10.961l15.374-15.374c1.712-1.712,4.031-2.451,6.269-2.225l-4.104,4.104  c-1.766,1.767-1.766,4.641,0,6.406c1.767,1.766,4.641,1.766,6.406,0l4.472-4.472C45.722,63.215,45.033,65.929,43.096,67.865z   M83.239,27.722L67.865,43.096c-1.938,1.938-4.65,2.627-7.147,2.081l2.764-2.764c1.766-1.766,1.766-4.64-0.001-6.405  c-1.766-1.766-4.639-1.766-6.404,0l-2.396,2.395c-0.227-2.237,0.513-4.557,2.224-6.268l15.374-15.374  c3.021-3.021,7.939-3.021,10.961,0.001C86.261,19.784,86.261,24.7,83.239,27.722z"
     id="path3"
     style="fill:#102947;fill-opacity:1" /></svg>