<?xml version="1.0" encoding="UTF-8" standalone="no"?>
<!-- Generator: Adobe Illustrator 16.0.4, SVG Export Plug-In . SVG Version: 6.00 Build 0)  -->

<svg
   xmlns:dc="http://purl.org/dc/elements/1.1/"
   xmlns:cc="http://creativecommons.org/ns#"
   xmlns:rdf="http://www.w3.org/1999/02/22-rdf-syntax-ns#"
   xmlns:svg="http://www.w3.org/2000/svg"
   xmlns="http://www.w3.org/2000/svg"
   xmlns:sodipodi="http://sodipodi.sourceforge.net/DTD/sodipodi-0.dtd"
   xmlns:inkscape="http://www.inkscape.org/namespaces/inkscape"
   version="1.1"
   id="Layer_1"
   x="0px"
   y="0px"
   width="226.77px"
   height="155.91px"
   viewBox="0 0 226.77 155.91"
   enable-background="new 0 0 226.77 155.91"
   xml:space="preserve"
   inkscape:version="0.48.4 r9939"
   sodipodi:docname="refinementSphere.svg"><metadata
     id="metadata23"><rdf:RDF><cc:Work
         rdf:about=""><dc:format>image/svg+xml</dc:format><dc:type
           rdf:resource="http://purl.org/dc/dcmitype/StillImage" /></cc:Work></rdf:RDF></metadata><defs
     id="defs21" /><sodipodi:namedview
     pagecolor="#ffffff"
     bordercolor="#666666"
     borderopacity="1"
     objecttolerance="10"
     gridtolerance="10"
     guidetolerance="10"
     inkscape:pageopacity="0"
     inkscape:pageshadow="2"
     inkscape:window-width="1360"
     inkscape:window-height="712"
     id="namedview19"
     showgrid="false"
     inkscape:zoom="2.1406862"
     inkscape:cx="70.650974"
     inkscape:cy="79.083755"
     inkscape:window-x="-4"
     inkscape:window-y="-6"
     inkscape:window-maximized="1"
     inkscape:current-layer="Layer_1" /><g
     id="g3"
     style="fill:#102947;fill-opacity:1"
     transform="matrix(1.5993135,0,0,1.5993135,-67.953162,-46.719784)"><path
       d="m 113.385,124.723 c 25.797,0 46.781,-20.984 46.781,-46.781 0,-25.797 -20.984,-46.754 -46.781,-46.754 -25.797,0 -46.781,20.984 -46.781,46.753 0,25.769 20.984,46.782 46.781,46.782 z m 0,-85.615 c 19.884,0 36.303,15.017 38.558,34.268 -0.027,0.055 0.275,3.685 0.275,4.565 0,0.055 0,0.137 0,0.192 -6.243,2.942 -21.066,8.938 -38.833,8.938 -17.794,0 -32.646,-6.023 -38.833,-8.938 0,-0.055 0,-0.11 0,-0.165 0,-0.88 0.33,-4.565 0.274,-4.648 2.283,-19.251 18.702,-34.212 38.559,-34.212 z m 0,51.209 c 17.188,0 31.463,-5.253 38.668,-8.471 -1.952,19.608 -18.536,34.983 -38.668,34.983 -20.132,0 -36.716,-15.375 -38.668,-34.983 7.15,3.191 21.451,8.471 38.668,8.471 z"
       id="path5"
       style="fill:#102947;fill-opacity:1"
       inkscape:connector-curvature="0" /><path
       d="m 141.024,71.093 c 1.98,0.632 3.96,1.348 5.886,2.09 0.192,0.083 0.385,0.11 0.604,0.11 0.66,0 1.266,-0.385 1.513,-1.018 0.33,-0.825 -0.082,-1.788 -0.907,-2.118 -1.98,-0.77 -4.016,-1.513 -6.078,-2.173 -0.853,-0.275 -1.76,0.193 -2.035,1.045 -0.303,0.882 0.165,1.789 1.017,2.064 z"
       id="path7"
       style="fill:#102947;fill-opacity:1"
       inkscape:connector-curvature="0" /><path
       d="m 116.52,66.666 c 2.035,0.083 4.126,0.248 6.216,0.467 0.055,0 0.11,0 0.192,0 0.825,0 1.513,-0.605 1.623,-1.43 0.109,-0.88 -0.55,-1.705 -1.431,-1.788 -2.145,-0.248 -4.317,-0.413 -6.436,-0.495 -0.907,-0.055 -1.649,0.66 -1.677,1.568 -0.055,0.88 0.633,1.622 1.513,1.678 z"
       id="path9"
       style="fill:#102947;fill-opacity:1"
       inkscape:connector-curvature="0" /><path
       d="m 128.924,68.041 c 2.035,0.385 4.07,0.825 6.105,1.32 0.137,0.027 0.274,0.055 0.412,0.055 0.715,0 1.375,-0.495 1.567,-1.237 0.221,-0.88 -0.302,-1.76 -1.183,-1.98 -2.09,-0.522 -4.207,-0.99 -6.298,-1.375 -0.88,-0.165 -1.732,0.413 -1.897,1.292 -0.192,0.907 0.413,1.759 1.294,1.925 z"
       id="path11"
       style="fill:#102947;fill-opacity:1"
       inkscape:connector-curvature="0" /><path
       d="m 103.924,67.133 c 0.055,0 0.11,0 0.192,0 2.062,-0.248 4.153,-0.413 6.188,-0.495 0.907,-0.027 1.595,-0.77 1.567,-1.677 -0.027,-0.908 -0.771,-1.623 -1.678,-1.568 -2.117,0.083 -4.29,0.248 -6.436,0.495 -0.88,0.11 -1.54,0.908 -1.43,1.788 0.057,0.852 0.772,1.457 1.597,1.457 z"
       id="path13"
       style="fill:#102947;fill-opacity:1"
       inkscape:connector-curvature="0" /><path
       d="m 91.438,69.416 c 0.138,0 0.275,-0.027 0.413,-0.055 2.035,-0.523 4.07,-0.963 6.105,-1.32 0.88,-0.165 1.457,-1.018 1.293,-1.897 -0.165,-0.88 -0.99,-1.485 -1.898,-1.293 -2.09,0.385 -4.208,0.853 -6.298,1.375 -0.88,0.22 -1.402,1.101 -1.183,1.98 0.165,0.714 0.825,1.21 1.568,1.21 z"
       id="path15"
       style="fill:#102947;fill-opacity:1"
       inkscape:connector-curvature="0" /><path
       d="m 79.364,73.293 c 0.192,0 0.413,-0.027 0.605,-0.11 1.925,-0.77 3.905,-1.458 5.885,-2.09 0.854,-0.275 1.32,-1.183 1.046,-2.035 -0.303,-0.88 -1.21,-1.348 -2.063,-1.073 -2.062,0.66 -4.098,1.403 -6.077,2.173 -0.825,0.33 -1.238,1.265 -0.908,2.118 0.248,0.632 0.852,1.017 1.512,1.017 z"
       id="path17"
       style="fill:#102947;fill-opacity:1"
       inkscape:connector-curvature="0" /></g></svg>