<?xml version="1.0" encoding="UTF-8" standalone="no"?>
<!-- Generator: Adobe Illustrator 16.0.4, SVG Export Plug-In . SVG Version: 6.00 Build 0)  -->

<svg
   xmlns:dc="http://purl.org/dc/elements/1.1/"
   xmlns:cc="http://creativecommons.org/ns#"
   xmlns:rdf="http://www.w3.org/1999/02/22-rdf-syntax-ns#"
   xmlns:svg="http://www.w3.org/2000/svg"
   xmlns="http://www.w3.org/2000/svg"
   xmlns:sodipodi="http://sodipodi.sourceforge.net/DTD/sodipodi-0.dtd"
   xmlns:inkscape="http://www.inkscape.org/namespaces/inkscape"
   version="1.1"
   id="Layer_1"
   x="0px"
   y="0px"
   width="226.77px"
   height="155.91px"
   viewBox="0 0 226.77 155.91"
   enable-background="new 0 0 226.77 155.91"
   xml:space="preserve"
   inkscape:version="0.48.4 r9939"
   sodipodi:docname="refinementCylinder.svg"><metadata
     id="metadata19"><rdf:RDF><cc:Work
         rdf:about=""><dc:format>image/svg+xml</dc:format><dc:type
           rdf:resource="http://purl.org/dc/dcmitype/StillImage" /></cc:Work></rdf:RDF></metadata><defs
     id="defs17" /><sodipodi:namedview
     pagecolor="#ffffff"
     bordercolor="#666666"
     borderopacity="1"
     objecttolerance="10"
     gridtolerance="10"
     guidetolerance="10"
     inkscape:pageopacity="0"
     inkscape:pageshadow="2"
     inkscape:window-width="1360"
     inkscape:window-height="712"
     id="namedview15"
     showgrid="false"
     inkscape:zoom="2.1406862"
     inkscape:cx="155.04885"
     inkscape:cy="57.491863"
     inkscape:window-x="-4"
     inkscape:window-y="-6"
     inkscape:window-maximized="1"
     inkscape:current-layer="Layer_1" /><g
     id="g3"
     style="fill:#102947;fill-opacity:1"><path
       d="M111.996,10.712c-26.732,0-45.378,9.104-45.378,22.14c0,0.632,0.083,1.265,0.165,1.897c-0.11,0.412-0.165,0.853-0.165,1.32   v93.562c0,1.485,0.605,2.915,1.678,3.96c1.21,1.183,12.761,11.606,44.911,11.606h0.357c32.149,0,43.701-10.424,44.911-11.606   c1.072-1.045,1.678-2.475,1.678-3.96V36.069c0-0.386-0.028-0.771-0.11-1.128c0.082-0.55,0.11-1.1,0.11-1.65   C160.18,18.633,135.345,10.712,111.996,10.712z M111.996,21.851c24.064,0,37.018,8.113,37.018,11.413   c0,3.163-12.596,10.589-37.018,10.589c-22.799,0-34.24-7.041-34.24-11.001C77.755,28.891,89.196,21.851,111.996,21.851z    M149.041,126.826c-3.74,2.338-14.136,7.233-35.45,7.233h-0.357c-21.122,0-31.683-4.95-35.45-7.261v-0.715   c0.275-0.248,0.55-0.495,0.853-0.771c0.935-0.797,1.045-2.2,0.22-3.135c-0.302-0.33-0.688-0.522-1.072-0.633V47.978   c8.058,4.4,19.994,7.013,34.24,7.013c13.503,0,27.611-2.31,37.018-7.178v72.469c-1.155-0.825-2.393-1.623-3.686-2.365   c-1.072-0.605-2.42-0.221-3.025,0.853c-0.604,1.072-0.22,2.42,0.853,3.025c2.229,1.265,4.208,2.667,5.858,4.235V126.826   L149.041,126.826z"
       id="path5"
       style="fill:#102947;fill-opacity:1" /><path
       d="M106.055,111.315c-2.75,0.192-5.445,0.522-7.976,0.99c-1.21,0.22-2.008,1.375-1.815,2.585   c0.192,1.072,1.127,1.843,2.2,1.843c0.137,0,0.248,0,0.385-0.027c2.393-0.413,4.923-0.743,7.536-0.936   c1.238-0.082,2.145-1.155,2.062-2.393C108.338,112.141,107.238,111.205,106.055,111.315z"
       id="path7"
       style="fill:#102947;fill-opacity:1" /><path
       d="M90.187,114.203c-2.723,0.853-5.28,1.897-7.591,3.107c-1.1,0.578-1.512,1.897-0.962,2.998c0.385,0.77,1.183,1.21,1.98,1.21   c0.33,0,0.688-0.083,1.018-0.248c2.09-1.072,4.4-2.007,6.875-2.805c1.183-0.357,1.815-1.623,1.458-2.806   C92.634,114.478,91.369,113.818,90.187,114.203z"
       id="path9"
       style="fill:#102947;fill-opacity:1" /><path
       d="M137.848,114.615c-2.448-0.825-5.088-1.54-7.838-2.09c-1.21-0.248-2.365,0.55-2.613,1.76   c-0.247,1.21,0.551,2.365,1.761,2.613c2.558,0.495,5.005,1.155,7.261,1.925c0.247,0.083,0.494,0.11,0.715,0.11   c0.935,0,1.787-0.578,2.117-1.513C139.635,116.266,139.003,115,137.848,114.615z"
       id="path11"
       style="fill:#102947;fill-opacity:1" /><path
       d="M122.227,110.82c-2.558-0.248-5.309-0.33-8.113-0.22c-1.237,0.055-2.2,1.072-2.145,2.31s1.073,2.2,2.31,2.146   c2.612-0.083,5.143-0.027,7.508,0.22c0.248,0.027,0.495,0,0.743-0.055c0.907-0.221,1.622-0.963,1.705-1.953   C124.344,112.03,123.464,110.93,122.227,110.82z"
       id="path13"
       style="fill:#102947;fill-opacity:1" /></g></svg>